<?xml version='1.0' encoding='utf-8'?>
<svg xmlns:ns0="http://www.w3.org/2000/svg" xmlns="http://www.w3.org/2000/svg" width="575" height="512" viewBox="0 0 575 512"><ns0:svg height="512" width="512" viewBox="0 0 640 640"><ns0:path fill="#0a2848" d="M544 269.8C529.2 279.6 512.2 287.5 494.5 293.8C447.5 310.6 385.8 320 320 320C254.2 320 192.4 310.5 145.5 293.8C127.9 287.5 110.8 279.6 96 269.8L96 352C96 396.2 196.3 432 320 432C443.7 432 544 396.2 544 352L544 269.8zM544 192L544 144C544 99.8 443.7 64 320 64C196.3 64 96 99.8 96 144L96 192C96 236.2 196.3 272 320 272C443.7 272 544 236.2 544 192zM494.5 453.8C447.6 470.5 385.9 480 320 480C254.1 480 192.4 470.5 145.5 453.8C127.9 447.5 110.8 439.6 96 429.8L96 496C96 540.2 196.3 576 320 576C443.7 576 544 540.2 544 496L544 429.8C529.2 439.6 512.2 447.5 494.5 453.8z" /></ns0:svg><g transform="translate(200, -30) scale(0.75)"><ns0:svg height="512" width="512" viewBox="0 0 640 640"><ns0:path fill="#a94442" d="M305 151.1L320 171.8L335 151.1C360 116.5 400.2 96 442.9 96C516.4 96 576 155.6 576 229.1L576 231.7C576 343.9 436.1 474.2 363.1 529.9C350.7 539.3 335.5 544 320 544C304.5 544 289.2 539.4 276.9 529.9C203.9 474.2 64 343.9 64 231.7L64 229.1C64 155.6 123.6 96 197.1 96C239.8 96 280 116.5 305 151.1z" /></ns0:svg></g></svg>