<svg xmlns="http://www.w3.org/2000/svg" width="149.496" height="30.926" viewBox="0 0 149.496 30.926">
  <g id="Group_95" data-name="Group 95" transform="translate(-0.667 -1.56)">
    <path id="Path_1" data-name="Path 1" d="M42.787,32.345a8.488,8.488,0,0,1-2.278-.376h0a6.987,6.987,0,0,1-3.882-2.781h0a7.54,7.54,0,0,1-1.155-4.232h0V9.011a7.469,7.469,0,0,1,1.122-4.154h0A6.518,6.518,0,0,1,39.12,2.614h0a8.738,8.738,0,0,1,3.73-.92h11.9a1.411,1.411,0,0,1,1.411,1.411h0a1.411,1.411,0,0,1-1.411,1.409H42.821a6.2,6.2,0,0,0-1.565.268h0a4.093,4.093,0,0,0-2.3,1.612h0a4.669,4.669,0,0,0-.666,2.616h0V24.956a4.833,4.833,0,0,0,.618,2.566h0a3.688,3.688,0,0,0,1.35,1.294h0a5.9,5.9,0,0,0,2.509.708H54.821a1.41,1.41,0,0,1,1.41,1.41h0a1.41,1.41,0,0,1-1.41,1.41H42.787Z" transform="translate(-21.369 -0.082)" fill="#57a11f"/>
    <path id="Path_2" data-name="Path 2" d="M281.486,32.582a8.489,8.489,0,0,1-2.279-.376h0a6.992,6.992,0,0,1-3.882-2.781h0a7.553,7.553,0,0,1-1.155-4.232h0V3.489a1.41,1.41,0,0,1,1.41-1.409h0a1.409,1.409,0,0,1,1.41,1.409h0v21.7a4.836,4.836,0,0,0,.618,2.566h0a3.686,3.686,0,0,0,1.35,1.294h0a5.9,5.9,0,0,0,2.508.708h12.052a1.411,1.411,0,0,1,1.41,1.411h0a1.41,1.41,0,0,1-1.41,1.41H281.486Z" transform="translate(-167.92 -0.319)" fill="#004081"/>
    <path id="Path_3" data-name="Path 3" d="M116.028,29.525H103.976a5.9,5.9,0,0,1-2.509-.708,3.692,3.692,0,0,1-1.35-1.294,4.83,4.83,0,0,1-.618-2.566V18.615h14.61a1.41,1.41,0,0,0,0-2.821H99.5V9.011a4.658,4.658,0,0,1,.666-2.615,4.093,4.093,0,0,1,2.3-1.613,6.2,6.2,0,0,1,1.565-.268h11.924a1.41,1.41,0,1,0,0-2.82h-11.9a8.737,8.737,0,0,0-3.73.92A6.52,6.52,0,0,0,97.8,4.857a7.469,7.469,0,0,0-1.123,4.154V24.956a7.537,7.537,0,0,0,1.155,4.232,6.988,6.988,0,0,0,3.883,2.781,8.488,8.488,0,0,0,2.278.376h12.034a1.41,1.41,0,0,0,0-2.82Z" transform="translate(-58.948 -0.082)" fill="#004081"/>
    <path id="Path_4" data-name="Path 4" d="M176.6,1.695H164.7a8.748,8.748,0,0,0-3.731.92,6.527,6.527,0,0,0-2.527,2.243,7.472,7.472,0,0,0-1.123,4.155V30.935a1.41,1.41,0,1,0,2.82,0V18.615h14.611a1.41,1.41,0,1,0,0-2.82H160.14V9.011a4.655,4.655,0,0,1,.666-2.616,4.1,4.1,0,0,1,2.3-1.613,6.179,6.179,0,0,1,1.566-.268H176.6a1.41,1.41,0,0,0,0-2.82Z" transform="translate(-96.179 -0.082)" fill="#004081"/>
    <path id="Path_5" data-name="Path 5" d="M221.733,3.233a6.569,6.569,0,0,0-4.5-1.673,9.277,9.277,0,0,0-8.267,5.75h0L197.919,30.346a1.41,1.41,0,1,0,2.543,1.22l6.251-13.037c.015,0,.03,0,.046,0h14.105c0,.662,0,1.328,0,1.988-.008,5.435-.015,10.54-.015,10.552a1.41,1.41,0,0,0,1.408,1.412h0a1.41,1.41,0,0,0,1.41-1.408s.031-20.467.031-23.011A6.415,6.415,0,0,0,221.733,3.233Zm-13.67,12.479,3.451-7.2.006-.014a6.471,6.471,0,0,1,5.711-4.119,3.759,3.759,0,0,1,2.585.922,3.583,3.583,0,0,1,1.061,2.764c0,.89,0,3.994-.009,7.645Z" transform="translate(-121.02 0)" fill="#004081"/>
    <path id="Path_6" data-name="Path 6" d="M8.63,5.96A3.982,3.982,0,1,1,4.648,1.979,3.982,3.982,0,0,1,8.63,5.96Z" transform="translate(0 -0.257)" fill="#57a11f"/>
    <path id="Path_7" data-name="Path 7" d="M8.63,35.18A3.982,3.982,0,1,1,4.648,31.2,3.982,3.982,0,0,1,8.63,35.18Z" transform="translate(0 -18.197)" fill="#00a9dc"/>
    <path id="Path_8" data-name="Path 8" d="M8.63,64.4a3.982,3.982,0,1,1-3.982-3.981A3.981,3.981,0,0,1,8.63,64.4Z" transform="translate(0 -36.137)" fill="#004081"/>
    <path id="Path_9" data-name="Path 9" d="M349.834,4.856A6.9,6.9,0,0,0,346,2.086a8.774,8.774,0,0,0-2.424-.392h-8.485a8.735,8.735,0,0,0-3.73.92,6.516,6.516,0,0,0-2.527,2.242,7.477,7.477,0,0,0-1.123,4.154V24.956a7.555,7.555,0,0,0,1.155,4.232,6.988,6.988,0,0,0,3.882,2.781,10.13,10.13,0,0,0,2.608.376v0l8.284,0a8.609,8.609,0,0,0,3.589-.9,6.618,6.618,0,0,0,2.571-2.258,7.552,7.552,0,0,0,1.154-4.232V9.011A7.472,7.472,0,0,0,349.834,4.856Zm-1.7,20.1a4.726,4.726,0,0,1-.691,2.681,4.189,4.189,0,0,1-2.346,1.634,6.186,6.186,0,0,1-1.077.224c-.135.016-.242.024-.309.027l-.07,0h-8.634a5.893,5.893,0,0,1-2.508-.709,3.691,3.691,0,0,1-1.35-1.293,4.835,4.835,0,0,1-.618-2.566V9.011A4.658,4.658,0,0,1,331.2,6.4a4.094,4.094,0,0,1,2.3-1.613,6.188,6.188,0,0,1,1.565-.267h8.558a6.126,6.126,0,0,1,2.4.61,3.687,3.687,0,0,1,1.45,1.271,4.658,4.658,0,0,1,.666,2.616Z" transform="translate(-200.794 -0.082)" fill="#004081"/>
  </g>
</svg>
