<?xml version="1.0" encoding="UTF-8"?>
<svg id="Layer_1" data-name="Layer 1" xmlns="http://www.w3.org/2000/svg" version="1.1" viewBox="0 0 516.1 154.9">
  <defs>
    <style>
      .cls-1 {
        fill: #1a5632;
      }

      .cls-1, .cls-2 {
        stroke-width: 0px;
      }

      .cls-2 {
        fill: #231f20;
      }
    </style>
  </defs>
  <g>
    <path class="cls-1" d="M142.4,139.1c14.4,0,28.1-13.9,28.1-28s0-95.1,0-95.1h-42.9v76.4c0,3.1-3.4,9.3-9.3,9.3h-50.5c-5.9,0-9.3-6.2-9.3-9.3V16H15.8s0,92,0,95.1c0,14,13.7,28,28.1,28h98.5Z"/>
    <path class="cls-1" d="M278.7,16h-49.2l-67.7,123.1h50.2l9.3-19.2h65.5l9.3,19.2h50.2l-67.7-123.1ZM237.8,86l16.3-33.4,16.3,33.4h-32.5Z"/>
    <path class="cls-1" d="M349,16.2h110.5c25.1,0,36.3,11,36.3,30.6s-5.3,20.3-14.6,23.9v.3c15.8,4.1,21,18.9,21,28.1,0,24.1-12,39.9-48,39.9h-105.2V16.2ZM396.5,62h36.7c9.8,0,12-3.3,12-8.1s-2.2-7.7-12-7.7h-36.7v15.8ZM396.5,109.1h41.5c9.6,0,12.6-4.1,12.6-9.6s-2.9-9.6-12.6-9.6h-41.5v19.3Z"/>
  </g>
  <path class="cls-2" d="M495.9,129.8c2.4,0,4.3,1.9,4.3,4.3s-1.9,4.3-4.3,4.3-4.3-1.9-4.3-4.3,1.9-4.3,4.3-4.3ZM495.9,137.8c2,0,3.7-1.6,3.7-3.7s-1.6-3.7-3.7-3.7-3.7,1.6-3.7,3.7,1.6,3.7,3.7,3.7ZM494.9,136.6h-.6v-5h1.9c1.1,0,1.6.5,1.6,1.4s-.6,1.3-1.3,1.4l1.5,2.2h-.7l-1.5-2.2h-.9v2.2ZM494.9,133.9h.8c.7,0,1.4,0,1.4-.9s-.6-.8-1.1-.8h-1.1v1.7Z"/>
</svg>