<svg width="1000" height="1000" xmlns="http://www.w3.org/2000/svg" version="1.1">


<!-- internal style sheet -->
<style type="text/css"><![CDATA[
 rect.background{fill:white}
 rect{fill:none; stroke:rgb(25,25,25); stroke-width:2}
 text{font-family:Helvetica; text-anchor:middle; fill:rgb(25,25,25)}
 line{stroke:rgb(25,25,25); stroke-width:4}
 path{fill:none; stroke:rgb(25,25,25); stroke-width:2}
 circle{fill:white; stroke:black; stroke-width:2}

 path.p0{fill:rgb(0,102,255); stroke:rgb(25,25,25); stroke-width:2}
 path.ps0{fill:rgb(0,77,191); stroke:rgb(20,20,20); stroke-width:2}
 rect.r0{fill:rgb(0,102,255); stroke:rgb(25,25,25); stroke-width:2}
 path.p1{fill:rgb(0,255,224); stroke:rgb(25,25,25); stroke-width:2}
 path.ps1{fill:rgb(0,191,168); stroke:rgb(20,20,20); stroke-width:2}
 rect.r1{fill:rgb(0,255,224); stroke:rgb(25,25,25); stroke-width:2}
 path.p2{fill:rgb(0,255,41); stroke:rgb(25,25,25); stroke-width:2}
 path.ps2{fill:rgb(0,191,31); stroke:rgb(20,20,20); stroke-width:2}
 rect.r2{fill:rgb(0,255,41); stroke:rgb(25,25,25); stroke-width:2}
 path.p3{fill:rgb(143,255,0); stroke:rgb(25,25,25); stroke-width:2}
 path.ps3{fill:rgb(107,191,0); stroke:rgb(20,20,20); stroke-width:2}
 rect.r3{fill:rgb(143,255,0); stroke:rgb(25,25,25); stroke-width:2}
 path.p4{fill:rgb(255,184,0); stroke:rgb(25,25,25); stroke-width:2}
 path.ps4{fill:rgb(191,138,0); stroke:rgb(20,20,20); stroke-width:2}
 rect.r4{fill:rgb(255,184,0); stroke:rgb(25,25,25); stroke-width:2}
 path.p5{fill:rgb(255,0,0); stroke:rgb(25,25,25); stroke-width:2}
 path.ps5{fill:rgb(191,0,0); stroke:rgb(20,20,20); stroke-width:2}
 rect.r5{fill:rgb(255,0,0); stroke:rgb(25,25,25); stroke-width:2}
]]></style>

 <rect class="background" width="1000" height="1000"/>
  <!-- cells -->
  <path class="p1" d="M 920 500 L 899 370 L 800 403 L 815 500 L 920 500"/>
  <line x1="920" y1="500" x2="899" y2="370"/>
  <path class="p1" d="M 899 370 L 840 253 L 755 315 L 800 403 L 899 370"/>
  <line x1="899" y1="370" x2="840" y2="253"/>
  <path class="p1" d="M 840 253 L 747 160 L 685 245 L 755 315 L 840 253"/>
  <line x1="840" y1="253" x2="747" y2="160"/>
  <path class="p1" d="M 747 160 L 630 101 L 597 200 L 685 245 L 747 160"/>
  <line x1="747" y1="160" x2="630" y2="101"/>
  <path class="p1" d="M 630 101 L 500 80 L 500 185 L 597 200 L 630 101"/>
  <line x1="630" y1="101" x2="500" y2="80"/>
  <path class="p1" d="M 500 80 L 370 101 L 403 200 L 500 185 L 500 80"/>
  <line x1="500" y1="80" x2="370" y2="101"/>
  <path class="p1" d="M 370 101 L 253 160 L 315 245 L 403 200 L 370 101"/>
  <line x1="370" y1="101" x2="253" y2="160"/>
  <path class="p1" d="M 253 160 L 160 253 L 245 315 L 315 245 L 253 160"/>
  <line x1="253" y1="160" x2="160" y2="253"/>
  <path class="p1" d="M 160 253 L 101 370 L 200 403 L 245 315 L 160 253"/>
  <line x1="160" y1="253" x2="101" y2="370"/>
  <path class="p1" d="M 101 370 L 80 500 L 185 500 L 200 403 L 101 370"/>
  <line x1="101" y1="370" x2="80" y2="500"/>
  <path class="p1" d="M 80 500 L 101 630 L 200 597 L 185 500 L 80 500"/>
  <line x1="80" y1="500" x2="101" y2="630"/>
  <path class="p1" d="M 101 630 L 160 747 L 245 685 L 200 597 L 101 630"/>
  <line x1="101" y1="630" x2="160" y2="747"/>
  <path class="p1" d="M 160 747 L 253 840 L 315 755 L 245 685 L 160 747"/>
  <line x1="160" y1="747" x2="253" y2="840"/>
  <path class="p1" d="M 253 840 L 370 899 L 403 800 L 315 755 L 253 840"/>
  <line x1="253" y1="840" x2="370" y2="899"/>
  <path class="p1" d="M 370 899 L 500 920 L 500 815 L 403 800 L 370 899"/>
  <line x1="370" y1="899" x2="500" y2="920"/>
  <path class="p1" d="M 500 920 L 630 899 L 597 800 L 500 815 L 500 920"/>
  <line x1="500" y1="920" x2="630" y2="899"/>
  <path class="p1" d="M 630 899 L 747 840 L 685 755 L 597 800 L 630 899"/>
  <line x1="630" y1="899" x2="747" y2="840"/>
  <path class="p1" d="M 747 840 L 840 747 L 755 685 L 685 755 L 747 840"/>
  <line x1="747" y1="840" x2="840" y2="747"/>
  <path class="p1" d="M 840 747 L 899 630 L 800 597 L 755 685 L 840 747"/>
  <line x1="840" y1="747" x2="899" y2="630"/>
  <path class="p1" d="M 899 630 L 920 500 L 815 500 L 800 597 L 899 630"/>
  <line x1="899" y1="630" x2="920" y2="500"/>
  <path class="p2" d="M 815 500 L 811 451 L 759 459 L 763 500 L 815 500"/>
  <path class="p2" d="M 811 451 L 800 403 L 750 419 L 759 459 L 811 451"/>
  <path class="p2" d="M 800 403 L 781 357 L 734 381 L 750 419 L 800 403"/>
  <path class="p2" d="M 781 357 L 755 315 L 712 346 L 734 381 L 781 357"/>
  <path class="p2" d="M 755 315 L 723 277 L 686 314 L 712 346 L 755 315"/>
  <path class="p2" d="M 723 277 L 685 245 L 654 288 L 686 314 L 723 277"/>
  <path class="p2" d="M 685 245 L 643 219 L 619 266 L 654 288 L 685 245"/>
  <path class="p2" d="M 643 219 L 597 200 L 581 250 L 619 266 L 643 219"/>
  <path class="p2" d="M 597 200 L 549 189 L 541 241 L 581 250 L 597 200"/>
  <path class="p2" d="M 549 189 L 500 185 L 500 238 L 541 241 L 549 189"/>
  <path class="p2" d="M 500 185 L 451 189 L 459 241 L 500 238 L 500 185"/>
  <path class="p2" d="M 451 189 L 403 200 L 419 250 L 459 241 L 451 189"/>
  <path class="p2" d="M 403 200 L 357 219 L 381 266 L 419 250 L 403 200"/>
  <path class="p2" d="M 357 219 L 315 245 L 346 288 L 381 266 L 357 219"/>
  <path class="p2" d="M 315 245 L 277 277 L 314 314 L 346 288 L 315 245"/>
  <path class="p2" d="M 277 277 L 245 315 L 288 346 L 314 314 L 277 277"/>
  <path class="p2" d="M 245 315 L 219 357 L 266 381 L 288 346 L 245 315"/>
  <path class="p2" d="M 219 357 L 200 403 L 250 419 L 266 381 L 219 357"/>
  <path class="p2" d="M 200 403 L 189 451 L 241 459 L 250 419 L 200 403"/>
  <path class="p2" d="M 189 451 L 185 500 L 238 500 L 241 459 L 189 451"/>
  <path class="p2" d="M 185 500 L 189 549 L 241 541 L 238 500 L 185 500"/>
  <path class="p2" d="M 189 549 L 200 597 L 250 581 L 241 541 L 189 549"/>
  <path class="p2" d="M 200 597 L 219 643 L 266 619 L 250 581 L 200 597"/>
  <path class="p2" d="M 219 643 L 245 685 L 288 654 L 266 619 L 219 643"/>
  <path class="p2" d="M 245 685 L 277 723 L 314 686 L 288 654 L 245 685"/>
  <path class="p2" d="M 277 723 L 315 755 L 346 712 L 314 686 L 277 723"/>
  <path class="p2" d="M 315 755 L 357 781 L 381 734 L 346 712 L 315 755"/>
  <path class="p2" d="M 357 781 L 403 800 L 419 750 L 381 734 L 357 781"/>
  <path class="p2" d="M 403 800 L 451 811 L 459 759 L 419 750 L 403 800"/>
  <path class="p2" d="M 451 811 L 500 815 L 500 763 L 459 759 L 451 811"/>
  <path class="p2" d="M 500 815 L 549 811 L 541 759 L 500 763 L 500 815"/>
  <path class="p2" d="M 549 811 L 597 800 L 581 750 L 541 759 L 549 811"/>
  <path class="p2" d="M 597 800 L 643 781 L 619 734 L 581 750 L 597 800"/>
  <path class="p2" d="M 643 781 L 685 755 L 654 712 L 619 734 L 643 781"/>
  <path class="p2" d="M 685 755 L 723 723 L 686 686 L 654 712 L 685 755"/>
  <path class="p2" d="M 723 723 L 755 685 L 712 654 L 686 686 L 723 723"/>
  <path class="p2" d="M 755 685 L 781 643 L 734 619 L 712 654 L 755 685"/>
  <path class="p2" d="M 781 643 L 800 597 L 750 581 L 734 619 L 781 643"/>
  <path class="p2" d="M 800 597 L 811 549 L 759 541 L 750 581 L 800 597"/>
  <path class="p2" d="M 811 549 L 815 500 L 763 500 L 759 541 L 811 549"/>
  <path class="p3" d="M 763 500 L 762 479 L 736 481 L 736 500 L 763 500"/>
  <path class="p3" d="M 762 479 L 759 459 L 733 463 L 736 481 L 762 479"/>
  <path class="p3" d="M 759 459 L 755 439 L 730 445 L 733 463 L 759 459"/>
  <path class="p3" d="M 755 439 L 750 419 L 725 427 L 730 445 L 755 439"/>
  <path class="p3" d="M 750 419 L 743 400 L 718 410 L 725 427 L 750 419"/>
  <path class="p3" d="M 743 400 L 734 381 L 711 393 L 718 410 L 743 400"/>
  <path class="p3" d="M 734 381 L 724 363 L 701 377 L 711 393 L 734 381"/>
  <path class="p3" d="M 724 363 L 712 346 L 691 361 L 701 377 L 724 363"/>
  <path class="p3" d="M 712 346 L 700 330 L 680 347 L 691 361 L 712 346"/>
  <path class="p3" d="M 700 330 L 686 314 L 667 333 L 680 347 L 700 330"/>
  <path class="p3" d="M 686 314 L 670 300 L 653 320 L 667 333 L 686 314"/>
  <path class="p3" d="M 670 300 L 654 288 L 639 309 L 653 320 L 670 300"/>
  <path class="p3" d="M 654 288 L 637 276 L 623 299 L 639 309 L 654 288"/>
  <path class="p3" d="M 637 276 L 619 266 L 607 289 L 623 299 L 637 276"/>
  <path class="p3" d="M 619 266 L 600 257 L 590 282 L 607 289 L 619 266"/>
  <path class="p3" d="M 600 257 L 581 250 L 573 275 L 590 282 L 600 257"/>
  <path class="p3" d="M 581 250 L 561 245 L 555 270 L 573 275 L 581 250"/>
  <path class="p3" d="M 561 245 L 541 241 L 537 267 L 555 270 L 561 245"/>
  <path class="p3" d="M 541 241 L 521 238 L 519 264 L 537 267 L 541 241"/>
  <path class="p3" d="M 521 238 L 500 238 L 500 264 L 519 264 L 521 238"/>
  <path class="p3" d="M 500 238 L 479 238 L 481 264 L 500 264 L 500 238"/>
  <path class="p3" d="M 479 238 L 459 241 L 463 267 L 481 264 L 479 238"/>
  <path class="p3" d="M 459 241 L 439 245 L 445 270 L 463 267 L 459 241"/>
  <path class="p3" d="M 439 245 L 419 250 L 427 275 L 445 270 L 439 245"/>
  <path class="p3" d="M 419 250 L 400 257 L 410 282 L 427 275 L 419 250"/>
  <path class="p3" d="M 400 257 L 381 266 L 393 289 L 410 282 L 400 257"/>
  <path class="p3" d="M 381 266 L 363 276 L 377 299 L 393 289 L 381 266"/>
  <path class="p3" d="M 363 276 L 346 288 L 361 309 L 377 299 L 363 276"/>
  <path class="p3" d="M 346 288 L 330 300 L 347 320 L 361 309 L 346 288"/>
  <path class="p3" d="M 330 300 L 314 314 L 333 333 L 347 320 L 330 300"/>
  <path class="p3" d="M 314 314 L 300 330 L 320 347 L 333 333 L 314 314"/>
  <path class="p3" d="M 300 330 L 288 346 L 309 361 L 320 347 L 300 330"/>
  <path class="p3" d="M 288 346 L 276 363 L 299 377 L 309 361 L 288 346"/>
  <path class="p3" d="M 276 363 L 266 381 L 289 393 L 299 377 L 276 363"/>
  <path class="p3" d="M 266 381 L 257 400 L 282 410 L 289 393 L 266 381"/>
  <path class="p3" d="M 257 400 L 250 419 L 275 427 L 282 410 L 257 400"/>
  <path class="p3" d="M 250 419 L 245 439 L 270 445 L 275 427 L 250 419"/>
  <path class="p3" d="M 245 439 L 241 459 L 267 463 L 270 445 L 245 439"/>
  <path class="p3" d="M 241 459 L 238 479 L 264 481 L 267 463 L 241 459"/>
  <path class="p3" d="M 238 479 L 238 500 L 264 500 L 264 481 L 238 479"/>
  <path class="p3" d="M 238 500 L 238 521 L 264 519 L 264 500 L 238 500"/>
  <path class="p3" d="M 238 521 L 241 541 L 267 537 L 264 519 L 238 521"/>
  <path class="p3" d="M 241 541 L 245 561 L 270 555 L 267 537 L 241 541"/>
  <path class="p3" d="M 245 561 L 250 581 L 275 573 L 270 555 L 245 561"/>
  <path class="p3" d="M 250 581 L 257 600 L 282 590 L 275 573 L 250 581"/>
  <path class="p3" d="M 257 600 L 266 619 L 289 607 L 282 590 L 257 600"/>
  <path class="p3" d="M 266 619 L 276 637 L 299 623 L 289 607 L 266 619"/>
  <path class="p3" d="M 276 637 L 288 654 L 309 639 L 299 623 L 276 637"/>
  <path class="p3" d="M 288 654 L 300 670 L 320 653 L 309 639 L 288 654"/>
  <path class="p3" d="M 300 670 L 314 686 L 333 667 L 320 653 L 300 670"/>
  <path class="p3" d="M 314 686 L 330 700 L 347 680 L 333 667 L 314 686"/>
  <path class="p3" d="M 330 700 L 346 712 L 361 691 L 347 680 L 330 700"/>
  <path class="p3" d="M 346 712 L 363 724 L 377 701 L 361 691 L 346 712"/>
  <path class="p3" d="M 363 724 L 381 734 L 393 711 L 377 701 L 363 724"/>
  <path class="p3" d="M 381 734 L 400 743 L 410 718 L 393 711 L 381 734"/>
  <path class="p3" d="M 400 743 L 419 750 L 427 725 L 410 718 L 400 743"/>
  <path class="p3" d="M 419 750 L 439 755 L 445 730 L 427 725 L 419 750"/>
  <path class="p3" d="M 439 755 L 459 759 L 463 733 L 445 730 L 439 755"/>
  <path class="p3" d="M 459 759 L 479 762 L 481 736 L 463 733 L 459 759"/>
  <path class="p3" d="M 479 762 L 500 763 L 500 736 L 481 736 L 479 762"/>
  <path class="p3" d="M 500 763 L 521 762 L 519 736 L 500 736 L 500 763"/>
  <path class="p3" d="M 521 762 L 541 759 L 537 733 L 519 736 L 521 762"/>
  <path class="p3" d="M 541 759 L 561 755 L 555 730 L 537 733 L 541 759"/>
  <path class="p3" d="M 561 755 L 581 750 L 573 725 L 555 730 L 561 755"/>
  <path class="p3" d="M 581 750 L 600 743 L 590 718 L 573 725 L 581 750"/>
  <path class="p3" d="M 600 743 L 619 734 L 607 711 L 590 718 L 600 743"/>
  <path class="p3" d="M 619 734 L 637 724 L 623 701 L 607 711 L 619 734"/>
  <path class="p3" d="M 637 724 L 654 712 L 639 691 L 623 701 L 637 724"/>
  <path class="p3" d="M 654 712 L 670 700 L 653 680 L 639 691 L 654 712"/>
  <path class="p3" d="M 670 700 L 686 686 L 667 667 L 653 680 L 670 700"/>
  <path class="p3" d="M 686 686 L 700 670 L 680 653 L 667 667 L 686 686"/>
  <path class="p3" d="M 700 670 L 712 654 L 691 639 L 680 653 L 700 670"/>
  <path class="p3" d="M 712 654 L 724 637 L 701 623 L 691 639 L 712 654"/>
  <path class="p3" d="M 724 637 L 734 619 L 711 607 L 701 623 L 724 637"/>
  <path class="p3" d="M 734 619 L 743 600 L 718 590 L 711 607 L 734 619"/>
  <path class="p3" d="M 743 600 L 750 581 L 725 573 L 718 590 L 743 600"/>
  <path class="p3" d="M 750 581 L 755 561 L 730 555 L 725 573 L 750 581"/>
  <path class="p3" d="M 755 561 L 759 541 L 733 537 L 730 555 L 755 561"/>
  <path class="p3" d="M 759 541 L 762 521 L 736 519 L 733 537 L 759 541"/>
  <path class="p3" d="M 762 521 L 763 500 L 736 500 L 736 519 L 762 521"/>
  <path class="p4" d="M 736 500 L 736 491 L 723 491 L 723 500 L 736 500"/>
  <path class="p4" d="M 736 491 L 736 481 L 722 482 L 723 491 L 736 491"/>
  <path class="p4" d="M 736 481 L 735 472 L 722 474 L 722 482 L 736 481"/>
  <path class="p4" d="M 735 472 L 733 463 L 720 465 L 722 474 L 735 472"/>
  <path class="p4" d="M 733 463 L 732 454 L 719 456 L 720 465 L 733 463"/>
  <path class="p4" d="M 732 454 L 730 445 L 717 448 L 719 456 L 732 454"/>
  <path class="p4" d="M 730 445 L 727 436 L 715 439 L 717 448 L 730 445"/>
  <path class="p4" d="M 727 436 L 725 427 L 712 431 L 715 439 L 727 436"/>
  <path class="p4" d="M 725 427 L 722 418 L 709 423 L 712 431 L 725 427"/>
  <path class="p4" d="M 722 418 L 718 410 L 706 415 L 709 423 L 722 418"/>
  <path class="p4" d="M 718 410 L 715 401 L 703 407 L 706 415 L 718 410"/>
  <path class="p4" d="M 715 401 L 711 393 L 699 399 L 703 407 L 715 401"/>
  <path class="p4" d="M 711 393 L 706 385 L 695 391 L 699 399 L 711 393"/>
  <path class="p4" d="M 706 385 L 701 377 L 690 383 L 695 391 L 706 385"/>
  <path class="p4" d="M 701 377 L 696 369 L 686 376 L 690 383 L 701 377"/>
  <path class="p4" d="M 696 369 L 691 361 L 681 369 L 686 376 L 696 369"/>
  <path class="p4" d="M 691 361 L 686 354 L 675 362 L 681 369 L 691 361"/>
  <path class="p4" d="M 686 354 L 680 347 L 670 355 L 675 362 L 686 354"/>
  <path class="p4" d="M 680 347 L 673 340 L 664 349 L 670 355 L 680 347"/>
  <path class="p4" d="M 673 340 L 667 333 L 658 342 L 664 349 L 673 340"/>
  <path class="p4" d="M 667 333 L 660 327 L 651 336 L 658 342 L 667 333"/>
  <path class="p4" d="M 660 327 L 653 320 L 645 330 L 651 336 L 660 327"/>
  <path class="p4" d="M 653 320 L 646 314 L 638 325 L 645 330 L 653 320"/>
  <path class="p4" d="M 646 314 L 639 309 L 631 319 L 638 325 L 646 314"/>
  <path class="p4" d="M 639 309 L 631 304 L 624 314 L 631 319 L 639 309"/>
  <path class="p4" d="M 631 304 L 623 299 L 617 310 L 624 314 L 631 304"/>
  <path class="p4" d="M 623 299 L 615 294 L 609 305 L 617 310 L 623 299"/>
  <path class="p4" d="M 615 294 L 607 289 L 601 301 L 609 305 L 615 294"/>
  <path class="p4" d="M 607 289 L 599 285 L 593 297 L 601 301 L 607 289"/>
  <path class="p4" d="M 599 285 L 590 282 L 585 294 L 593 297 L 599 285"/>
  <path class="p4" d="M 590 282 L 582 278 L 577 291 L 585 294 L 590 282"/>
  <path class="p4" d="M 582 278 L 573 275 L 569 288 L 577 291 L 582 278"/>
  <path class="p4" d="M 573 275 L 564 273 L 561 285 L 569 288 L 573 275"/>
  <path class="p4" d="M 564 273 L 555 270 L 552 283 L 561 285 L 564 273"/>
  <path class="p4" d="M 555 270 L 546 268 L 544 281 L 552 283 L 555 270"/>
  <path class="p4" d="M 546 268 L 537 267 L 535 280 L 544 281 L 546 268"/>
  <path class="p4" d="M 537 267 L 528 265 L 526 278 L 535 280 L 537 267"/>
  <path class="p4" d="M 528 265 L 519 264 L 518 278 L 526 278 L 528 265"/>
  <path class="p4" d="M 519 264 L 509 264 L 509 277 L 518 278 L 519 264"/>
  <path class="p4" d="M 509 264 L 500 264 L 500 277 L 509 277 L 509 264"/>
  <path class="p4" d="M 500 264 L 491 264 L 491 277 L 500 277 L 500 264"/>
  <path class="p4" d="M 491 264 L 481 264 L 482 278 L 491 277 L 491 264"/>
  <path class="p4" d="M 481 264 L 472 265 L 474 278 L 482 278 L 481 264"/>
  <path class="p4" d="M 472 265 L 463 267 L 465 280 L 474 278 L 472 265"/>
  <path class="p4" d="M 463 267 L 454 268 L 456 281 L 465 280 L 463 267"/>
  <path class="p4" d="M 454 268 L 445 270 L 448 283 L 456 281 L 454 268"/>
  <path class="p4" d="M 445 270 L 436 273 L 439 285 L 448 283 L 445 270"/>
  <path class="p4" d="M 436 273 L 427 275 L 431 288 L 439 285 L 436 273"/>
  <path class="p4" d="M 427 275 L 418 278 L 423 291 L 431 288 L 427 275"/>
  <path class="p4" d="M 418 278 L 410 282 L 415 294 L 423 291 L 418 278"/>
  <path class="p4" d="M 410 282 L 401 285 L 407 297 L 415 294 L 410 282"/>
  <path class="p4" d="M 401 285 L 393 289 L 399 301 L 407 297 L 401 285"/>
  <path class="p4" d="M 393 289 L 385 294 L 391 305 L 399 301 L 393 289"/>
  <path class="p4" d="M 385 294 L 377 299 L 383 310 L 391 305 L 385 294"/>
  <path class="p4" d="M 377 299 L 369 304 L 376 314 L 383 310 L 377 299"/>
  <path class="p4" d="M 369 304 L 361 309 L 369 319 L 376 314 L 369 304"/>
  <path class="p4" d="M 361 309 L 354 314 L 362 325 L 369 319 L 361 309"/>
  <path class="p4" d="M 354 314 L 347 320 L 355 330 L 362 325 L 354 314"/>
  <path class="p4" d="M 347 320 L 340 327 L 349 336 L 355 330 L 347 320"/>
  <path class="p4" d="M 340 327 L 333 333 L 342 342 L 349 336 L 340 327"/>
  <path class="p4" d="M 333 333 L 327 340 L 336 349 L 342 342 L 333 333"/>
  <path class="p4" d="M 327 340 L 320 347 L 330 355 L 336 349 L 327 340"/>
  <path class="p4" d="M 320 347 L 314 354 L 325 362 L 330 355 L 320 347"/>
  <path class="p4" d="M 314 354 L 309 361 L 319 369 L 325 362 L 314 354"/>
  <path class="p4" d="M 309 361 L 304 369 L 314 376 L 319 369 L 309 361"/>
  <path class="p4" d="M 304 369 L 299 377 L 310 383 L 314 376 L 304 369"/>
  <path class="p4" d="M 299 377 L 294 385 L 305 391 L 310 383 L 299 377"/>
  <path class="p4" d="M 294 385 L 289 393 L 301 399 L 305 391 L 294 385"/>
  <path class="p4" d="M 289 393 L 285 401 L 297 407 L 301 399 L 289 393"/>
  <path class="p4" d="M 285 401 L 282 410 L 294 415 L 297 407 L 285 401"/>
  <path class="p4" d="M 282 410 L 278 418 L 291 423 L 294 415 L 282 410"/>
  <path class="p4" d="M 278 418 L 275 427 L 288 431 L 291 423 L 278 418"/>
  <path class="p4" d="M 275 427 L 273 436 L 285 439 L 288 431 L 275 427"/>
  <path class="p4" d="M 273 436 L 270 445 L 283 448 L 285 439 L 273 436"/>
  <path class="p4" d="M 270 445 L 268 454 L 281 456 L 283 448 L 270 445"/>
  <path class="p4" d="M 268 454 L 267 463 L 280 465 L 281 456 L 268 454"/>
  <path class="p4" d="M 267 463 L 265 472 L 278 474 L 280 465 L 267 463"/>
  <path class="p4" d="M 265 472 L 264 481 L 278 482 L 278 474 L 265 472"/>
  <path class="p4" d="M 264 481 L 264 491 L 277 491 L 278 482 L 264 481"/>
  <path class="p4" d="M 264 491 L 264 500 L 277 500 L 277 491 L 264 491"/>
  <path class="p4" d="M 264 500 L 264 509 L 277 509 L 277 500 L 264 500"/>
  <path class="p4" d="M 264 509 L 264 519 L 278 518 L 277 509 L 264 509"/>
  <path class="p4" d="M 264 519 L 265 528 L 278 526 L 278 518 L 264 519"/>
  <path class="p4" d="M 265 528 L 267 537 L 280 535 L 278 526 L 265 528"/>
  <path class="p4" d="M 267 537 L 268 546 L 281 544 L 280 535 L 267 537"/>
  <path class="p4" d="M 268 546 L 270 555 L 283 552 L 281 544 L 268 546"/>
  <path class="p4" d="M 270 555 L 273 564 L 285 561 L 283 552 L 270 555"/>
  <path class="p4" d="M 273 564 L 275 573 L 288 569 L 285 561 L 273 564"/>
  <path class="p4" d="M 275 573 L 278 582 L 291 577 L 288 569 L 275 573"/>
  <path class="p4" d="M 278 582 L 282 590 L 294 585 L 291 577 L 278 582"/>
  <path class="p4" d="M 282 590 L 285 599 L 297 593 L 294 585 L 282 590"/>
  <path class="p4" d="M 285 599 L 289 607 L 301 601 L 297 593 L 285 599"/>
  <path class="p4" d="M 289 607 L 294 615 L 305 609 L 301 601 L 289 607"/>
  <path class="p4" d="M 294 615 L 299 623 L 310 617 L 305 609 L 294 615"/>
  <path class="p4" d="M 299 623 L 304 631 L 314 624 L 310 617 L 299 623"/>
  <path class="p4" d="M 304 631 L 309 639 L 319 631 L 314 624 L 304 631"/>
  <path class="p4" d="M 309 639 L 314 646 L 325 638 L 319 631 L 309 639"/>
  <path class="p4" d="M 314 646 L 320 653 L 330 645 L 325 638 L 314 646"/>
  <path class="p4" d="M 320 653 L 327 660 L 336 651 L 330 645 L 320 653"/>
  <path class="p4" d="M 327 660 L 333 667 L 342 658 L 336 651 L 327 660"/>
  <path class="p4" d="M 333 667 L 340 673 L 349 664 L 342 658 L 333 667"/>
  <path class="p4" d="M 340 673 L 347 680 L 355 670 L 349 664 L 340 673"/>
  <path class="p4" d="M 347 680 L 354 686 L 362 675 L 355 670 L 347 680"/>
  <path class="p4" d="M 354 686 L 361 691 L 369 681 L 362 675 L 354 686"/>
  <path class="p4" d="M 361 691 L 369 696 L 376 686 L 369 681 L 361 691"/>
  <path class="p4" d="M 369 696 L 377 701 L 383 690 L 376 686 L 369 696"/>
  <path class="p4" d="M 377 701 L 385 706 L 391 695 L 383 690 L 377 701"/>
  <path class="p4" d="M 385 706 L 393 711 L 399 699 L 391 695 L 385 706"/>
  <path class="p4" d="M 393 711 L 401 715 L 407 703 L 399 699 L 393 711"/>
  <path class="p4" d="M 401 715 L 410 718 L 415 706 L 407 703 L 401 715"/>
  <path class="p4" d="M 410 718 L 418 722 L 423 709 L 415 706 L 410 718"/>
  <path class="p4" d="M 418 722 L 427 725 L 431 712 L 423 709 L 418 722"/>
  <path class="p4" d="M 427 725 L 436 727 L 439 715 L 431 712 L 427 725"/>
  <path class="p4" d="M 436 727 L 445 730 L 448 717 L 439 715 L 436 727"/>
  <path class="p4" d="M 445 730 L 454 732 L 456 719 L 448 717 L 445 730"/>
  <path class="p4" d="M 454 732 L 463 733 L 465 720 L 456 719 L 454 732"/>
  <path class="p4" d="M 463 733 L 472 735 L 474 722 L 465 720 L 463 733"/>
  <path class="p4" d="M 472 735 L 481 736 L 482 722 L 474 722 L 472 735"/>
  <path class="p4" d="M 481 736 L 491 736 L 491 723 L 482 722 L 481 736"/>
  <path class="p4" d="M 491 736 L 500 736 L 500 723 L 491 723 L 491 736"/>
  <path class="p4" d="M 500 736 L 509 736 L 509 723 L 500 723 L 500 736"/>
  <path class="p4" d="M 509 736 L 519 736 L 518 722 L 509 723 L 509 736"/>
  <path class="p4" d="M 519 736 L 528 735 L 526 722 L 518 722 L 519 736"/>
  <path class="p4" d="M 528 735 L 537 733 L 535 720 L 526 722 L 528 735"/>
  <path class="p4" d="M 537 733 L 546 732 L 544 719 L 535 720 L 537 733"/>
  <path class="p4" d="M 546 732 L 555 730 L 552 717 L 544 719 L 546 732"/>
  <path class="p4" d="M 555 730 L 564 727 L 561 715 L 552 717 L 555 730"/>
  <path class="p4" d="M 564 727 L 573 725 L 569 712 L 561 715 L 564 727"/>
  <path class="p4" d="M 573 725 L 582 722 L 577 709 L 569 712 L 573 725"/>
  <path class="p4" d="M 582 722 L 590 718 L 585 706 L 577 709 L 582 722"/>
  <path class="p4" d="M 590 718 L 599 715 L 593 703 L 585 706 L 590 718"/>
  <path class="p4" d="M 599 715 L 607 711 L 601 699 L 593 703 L 599 715"/>
  <path class="p4" d="M 607 711 L 615 706 L 609 695 L 601 699 L 607 711"/>
  <path class="p4" d="M 615 706 L 623 701 L 617 690 L 609 695 L 615 706"/>
  <path class="p4" d="M 623 701 L 631 696 L 624 686 L 617 690 L 623 701"/>
  <path class="p4" d="M 631 696 L 639 691 L 631 681 L 624 686 L 631 696"/>
  <path class="p4" d="M 639 691 L 646 686 L 638 675 L 631 681 L 639 691"/>
  <path class="p4" d="M 646 686 L 653 680 L 645 670 L 638 675 L 646 686"/>
  <path class="p4" d="M 653 680 L 660 673 L 651 664 L 645 670 L 653 680"/>
  <path class="p4" d="M 660 673 L 667 667 L 658 658 L 651 664 L 660 673"/>
  <path class="p4" d="M 667 667 L 673 660 L 664 651 L 658 658 L 667 667"/>
  <path class="p4" d="M 673 660 L 680 653 L 670 645 L 664 651 L 673 660"/>
  <path class="p4" d="M 680 653 L 686 646 L 675 638 L 670 645 L 680 653"/>
  <path class="p4" d="M 686 646 L 691 639 L 681 631 L 675 638 L 686 646"/>
  <path class="p4" d="M 691 639 L 696 631 L 686 624 L 681 631 L 691 639"/>
  <path class="p4" d="M 696 631 L 701 623 L 690 617 L 686 624 L 696 631"/>
  <path class="p4" d="M 701 623 L 706 615 L 695 609 L 690 617 L 701 623"/>
  <path class="p4" d="M 706 615 L 711 607 L 699 601 L 695 609 L 706 615"/>
  <path class="p4" d="M 711 607 L 715 599 L 703 593 L 699 601 L 711 607"/>
  <path class="p4" d="M 715 599 L 718 590 L 706 585 L 703 593 L 715 599"/>
  <path class="p4" d="M 718 590 L 722 582 L 709 577 L 706 585 L 718 590"/>
  <path class="p4" d="M 722 582 L 725 573 L 712 569 L 709 577 L 722 582"/>
  <path class="p4" d="M 725 573 L 727 564 L 715 561 L 712 569 L 725 573"/>
  <path class="p4" d="M 727 564 L 730 555 L 717 552 L 715 561 L 727 564"/>
  <path class="p4" d="M 730 555 L 732 546 L 719 544 L 717 552 L 730 555"/>
  <path class="p4" d="M 732 546 L 733 537 L 720 535 L 719 544 L 732 546"/>
  <path class="p4" d="M 733 537 L 735 528 L 722 526 L 720 535 L 733 537"/>
  <path class="p4" d="M 735 528 L 736 519 L 722 518 L 722 526 L 735 528"/>
  <path class="p4" d="M 736 519 L 736 509 L 723 509 L 722 518 L 736 519"/>
  <path class="p4" d="M 736 509 L 736 500 L 723 500 L 723 509 L 736 509"/>
  <path class="p5" d="M 723 500 L 723 496 L 717 496 L 717 500 L 723 500"/>
  <path class="p5" d="M 723 496 L 723 491 L 716 491 L 717 496 L 723 496"/>
  <path class="p5" d="M 717 500 L 717 496 L 710 496 L 710 500 L 717 500"/>
  <line x1="710" y1="500" x2="710" y2="496"/>
  <path class="p5" d="M 717 496 L 716 491 L 710 492 L 710 496 L 717 496"/>
  <line x1="710" y1="496" x2="710" y2="492"/>
  <path class="p5" d="M 723 491 L 723 487 L 716 487 L 716 491 L 723 491"/>
  <path class="p5" d="M 723 487 L 722 482 L 716 483 L 716 487 L 723 487"/>
  <path class="p5" d="M 716 491 L 716 487 L 710 488 L 710 492 L 716 491"/>
  <line x1="710" y1="492" x2="710" y2="488"/>
  <path class="p5" d="M 716 487 L 716 483 L 709 484 L 710 488 L 716 487"/>
  <line x1="710" y1="488" x2="709" y2="484"/>
  <path class="p5" d="M 722 482 L 722 478 L 716 479 L 716 483 L 722 482"/>
  <path class="p5" d="M 722 478 L 722 474 L 715 475 L 716 479 L 722 478"/>
  <path class="p5" d="M 716 483 L 716 479 L 709 479 L 709 484 L 716 483"/>
  <line x1="709" y1="484" x2="709" y2="479"/>
  <path class="p5" d="M 716 479 L 715 475 L 709 475 L 709 479 L 716 479"/>
  <line x1="709" y1="479" x2="709" y2="475"/>
  <path class="p5" d="M 722 474 L 721 469 L 715 470 L 715 475 L 722 474"/>
  <path class="p5" d="M 721 469 L 720 465 L 714 466 L 715 470 L 721 469"/>
  <path class="p5" d="M 715 475 L 715 470 L 708 471 L 709 475 L 715 475"/>
  <line x1="709" y1="475" x2="708" y2="471"/>
  <path class="p5" d="M 715 470 L 714 466 L 707 467 L 708 471 L 715 470"/>
  <line x1="708" y1="471" x2="707" y2="467"/>
  <path class="p5" d="M 720 465 L 720 461 L 713 462 L 714 466 L 720 465"/>
  <path class="p5" d="M 720 461 L 719 456 L 712 458 L 713 462 L 720 461"/>
  <path class="p5" d="M 714 466 L 713 462 L 707 463 L 707 467 L 714 466"/>
  <line x1="707" y1="467" x2="707" y2="463"/>
  <path class="p5" d="M 713 462 L 712 458 L 706 459 L 707 463 L 713 462"/>
  <line x1="707" y1="463" x2="706" y2="459"/>
  <path class="p5" d="M 719 456 L 718 452 L 712 454 L 712 458 L 719 456"/>
  <path class="p5" d="M 718 452 L 717 448 L 711 449 L 712 454 L 718 452"/>
  <path class="p5" d="M 712 458 L 712 454 L 705 455 L 706 459 L 712 458"/>
  <line x1="706" y1="459" x2="705" y2="455"/>
  <path class="p5" d="M 712 454 L 711 449 L 704 451 L 705 455 L 712 454"/>
  <line x1="705" y1="455" x2="704" y2="451"/>
  <path class="p5" d="M 717 448 L 716 444 L 710 445 L 711 449 L 717 448"/>
  <path class="p5" d="M 716 444 L 715 439 L 708 441 L 710 445 L 716 444"/>
  <path class="p5" d="M 711 449 L 710 445 L 703 447 L 704 451 L 711 449"/>
  <line x1="704" y1="451" x2="703" y2="447"/>
  <path class="p5" d="M 710 445 L 708 441 L 702 443 L 703 447 L 710 445"/>
  <line x1="703" y1="447" x2="702" y2="443"/>
  <path class="p5" d="M 715 439 L 714 435 L 707 437 L 708 441 L 715 439"/>
  <path class="p5" d="M 714 435 L 712 431 L 706 433 L 707 437 L 714 435"/>
  <path class="p5" d="M 708 441 L 707 437 L 701 439 L 702 443 L 708 441"/>
  <line x1="702" y1="443" x2="701" y2="439"/>
  <path class="p5" d="M 707 437 L 706 433 L 700 435 L 701 439 L 707 437"/>
  <line x1="701" y1="439" x2="700" y2="435"/>
  <path class="p5" d="M 712 431 L 711 427 L 705 429 L 706 433 L 712 431"/>
  <path class="p5" d="M 711 427 L 709 423 L 703 425 L 705 429 L 711 427"/>
  <path class="p5" d="M 706 433 L 705 429 L 698 431 L 700 435 L 706 433"/>
  <line x1="700" y1="435" x2="698" y2="431"/>
  <path class="p5" d="M 705 429 L 703 425 L 697 427 L 698 431 L 705 429"/>
  <line x1="698" y1="431" x2="697" y2="427"/>
  <path class="p5" d="M 709 423 L 708 419 L 702 421 L 703 425 L 709 423"/>
  <path class="p5" d="M 708 419 L 706 415 L 700 417 L 702 421 L 708 419"/>
  <path class="p5" d="M 703 425 L 702 421 L 696 423 L 697 427 L 703 425"/>
  <line x1="697" y1="427" x2="696" y2="423"/>
  <path class="p5" d="M 702 421 L 700 417 L 694 420 L 696 423 L 702 421"/>
  <line x1="696" y1="423" x2="694" y2="420"/>
  <path class="p5" d="M 706 415 L 704 411 L 698 413 L 700 417 L 706 415"/>
  <path class="p5" d="M 704 411 L 703 407 L 697 409 L 698 413 L 704 411"/>
  <path class="p5" d="M 700 417 L 698 413 L 692 416 L 694 420 L 700 417"/>
  <line x1="694" y1="420" x2="692" y2="416"/>
  <path class="p5" d="M 698 413 L 697 409 L 691 412 L 692 416 L 698 413"/>
  <line x1="692" y1="416" x2="691" y2="412"/>
  <path class="p5" d="M 703 407 L 701 403 L 695 405 L 697 409 L 703 407"/>
  <path class="p5" d="M 701 403 L 699 399 L 693 402 L 695 405 L 701 403"/>
  <path class="p5" d="M 697 409 L 695 405 L 689 408 L 691 412 L 697 409"/>
  <line x1="691" y1="412" x2="689" y2="408"/>
  <path class="p5" d="M 695 405 L 693 402 L 687 405 L 689 408 L 695 405"/>
  <line x1="689" y1="408" x2="687" y2="405"/>
  <path class="p5" d="M 699 399 L 697 395 L 691 398 L 693 402 L 699 399"/>
  <path class="p5" d="M 697 395 L 695 391 L 689 394 L 691 398 L 697 395"/>
  <path class="p5" d="M 693 402 L 691 398 L 685 401 L 687 405 L 693 402"/>
  <line x1="687" y1="405" x2="685" y2="401"/>
  <path class="p5" d="M 691 398 L 689 394 L 683 397 L 685 401 L 691 398"/>
  <line x1="685" y1="401" x2="683" y2="397"/>
  <path class="p5" d="M 695 391 L 692 387 L 687 390 L 689 394 L 695 391"/>
  <path class="p5" d="M 692 387 L 690 383 L 685 387 L 687 390 L 692 387"/>
  <path class="p5" d="M 689 394 L 687 390 L 681 394 L 683 397 L 689 394"/>
  <line x1="683" y1="397" x2="681" y2="394"/>
  <path class="p5" d="M 687 390 L 685 387 L 679 390 L 681 394 L 687 390"/>
  <line x1="681" y1="394" x2="679" y2="390"/>
  <path class="p5" d="M 690 383 L 688 380 L 682 383 L 685 387 L 690 383"/>
  <path class="p5" d="M 688 380 L 686 376 L 680 380 L 682 383 L 688 380"/>
  <path class="p5" d="M 685 387 L 682 383 L 677 387 L 679 390 L 685 387"/>
  <line x1="679" y1="390" x2="677" y2="387"/>
  <path class="p5" d="M 682 383 L 680 380 L 675 383 L 677 387 L 682 383"/>
  <line x1="677" y1="387" x2="675" y2="383"/>
  <path class="p5" d="M 686 376 L 683 372 L 678 376 L 680 380 L 686 376"/>
  <path class="p5" d="M 683 372 L 681 369 L 675 373 L 678 376 L 683 372"/>
  <path class="p5" d="M 680 380 L 678 376 L 672 380 L 675 383 L 680 380"/>
  <line x1="675" y1="383" x2="672" y2="380"/>
  <path class="p5" d="M 678 376 L 675 373 L 670 377 L 672 380 L 678 376"/>
  <line x1="672" y1="380" x2="670" y2="377"/>
  <path class="p5" d="M 681 369 L 678 365 L 673 369 L 675 373 L 681 369"/>
  <path class="p5" d="M 678 365 L 675 362 L 670 366 L 673 369 L 678 365"/>
  <path class="p5" d="M 675 373 L 673 369 L 667 373 L 670 377 L 675 373"/>
  <line x1="670" y1="377" x2="667" y2="373"/>
  <path class="p5" d="M 673 369 L 670 366 L 665 370 L 667 373 L 673 369"/>
  <line x1="667" y1="373" x2="665" y2="370"/>
  <path class="p5" d="M 675 362 L 672 358 L 667 363 L 670 366 L 675 362"/>
  <path class="p5" d="M 672 358 L 670 355 L 665 359 L 667 363 L 672 358"/>
  <path class="p5" d="M 670 366 L 667 363 L 662 367 L 665 370 L 670 366"/>
  <line x1="665" y1="370" x2="662" y2="367"/>
  <path class="p5" d="M 667 363 L 665 359 L 660 364 L 662 367 L 667 363"/>
  <line x1="662" y1="367" x2="660" y2="364"/>
  <path class="p5" d="M 670 355 L 667 352 L 662 356 L 665 359 L 670 355"/>
  <path class="p5" d="M 667 352 L 664 349 L 659 353 L 662 356 L 667 352"/>
  <path class="p5" d="M 665 359 L 662 356 L 657 361 L 660 364 L 665 359"/>
  <line x1="660" y1="364" x2="657" y2="361"/>
  <path class="p5" d="M 662 356 L 659 353 L 654 357 L 657 361 L 662 356"/>
  <line x1="657" y1="361" x2="654" y2="357"/>
  <path class="p5" d="M 664 349 L 661 345 L 656 350 L 659 353 L 664 349"/>
  <path class="p5" d="M 661 345 L 658 342 L 653 347 L 656 350 L 661 345"/>
  <path class="p5" d="M 659 353 L 656 350 L 651 354 L 654 357 L 659 353"/>
  <line x1="654" y1="357" x2="651" y2="354"/>
  <path class="p5" d="M 656 350 L 653 347 L 648 352 L 651 354 L 656 350"/>
  <line x1="651" y1="354" x2="648" y2="352"/>
  <path class="p5" d="M 658 342 L 655 339 L 650 344 L 653 347 L 658 342"/>
  <path class="p5" d="M 655 339 L 651 336 L 647 341 L 650 344 L 655 339"/>
  <path class="p5" d="M 653 347 L 650 344 L 646 349 L 648 352 L 653 347"/>
  <line x1="648" y1="352" x2="646" y2="349"/>
  <path class="p5" d="M 650 344 L 647 341 L 643 346 L 646 349 L 650 344"/>
  <line x1="646" y1="349" x2="643" y2="346"/>
  <path class="p5" d="M 651 336 L 648 333 L 644 338 L 647 341 L 651 336"/>
  <path class="p5" d="M 648 333 L 645 330 L 641 335 L 644 338 L 648 333"/>
  <path class="p5" d="M 647 341 L 644 338 L 639 343 L 643 346 L 647 341"/>
  <line x1="643" y1="346" x2="639" y2="343"/>
  <path class="p5" d="M 644 338 L 641 335 L 636 340 L 639 343 L 644 338"/>
  <line x1="639" y1="343" x2="636" y2="340"/>
  <path class="p5" d="M 645 330 L 642 328 L 637 333 L 641 335 L 645 330"/>
  <path class="p5" d="M 642 328 L 638 325 L 634 330 L 637 333 L 642 328"/>
  <path class="p5" d="M 641 335 L 637 333 L 633 338 L 636 340 L 641 335"/>
  <line x1="636" y1="340" x2="633" y2="338"/>
  <path class="p5" d="M 637 333 L 634 330 L 630 335 L 633 338 L 637 333"/>
  <line x1="633" y1="338" x2="630" y2="335"/>
  <path class="p5" d="M 638 325 L 635 322 L 631 327 L 634 330 L 638 325"/>
  <path class="p5" d="M 635 322 L 631 319 L 627 325 L 631 327 L 635 322"/>
  <path class="p5" d="M 634 330 L 631 327 L 627 333 L 630 335 L 634 330"/>
  <line x1="630" y1="335" x2="627" y2="333"/>
  <path class="p5" d="M 631 327 L 627 325 L 623 330 L 627 333 L 631 327"/>
  <line x1="627" y1="333" x2="623" y2="330"/>
  <path class="p5" d="M 631 319 L 628 317 L 624 322 L 627 325 L 631 319"/>
  <path class="p5" d="M 628 317 L 624 314 L 620 320 L 624 322 L 628 317"/>
  <path class="p5" d="M 627 325 L 624 322 L 620 328 L 623 330 L 627 325"/>
  <line x1="623" y1="330" x2="620" y2="328"/>
  <path class="p5" d="M 624 322 L 620 320 L 617 325 L 620 328 L 624 322"/>
  <line x1="620" y1="328" x2="617" y2="325"/>
  <path class="p5" d="M 624 314 L 620 312 L 617 318 L 620 320 L 624 314"/>
  <path class="p5" d="M 620 312 L 617 310 L 613 315 L 617 318 L 620 312"/>
  <path class="p5" d="M 620 320 L 617 318 L 613 323 L 617 325 L 620 320"/>
  <line x1="617" y1="325" x2="613" y2="323"/>
  <path class="p5" d="M 617 318 L 613 315 L 610 321 L 613 323 L 617 318"/>
  <line x1="613" y1="323" x2="610" y2="321"/>
  <path class="p5" d="M 617 310 L 613 308 L 610 313 L 613 315 L 617 310"/>
  <path class="p5" d="M 613 308 L 609 305 L 606 311 L 610 313 L 613 308"/>
  <path class="p5" d="M 613 315 L 610 313 L 606 319 L 610 321 L 613 315"/>
  <line x1="610" y1="321" x2="606" y2="319"/>
  <path class="p5" d="M 610 313 L 606 311 L 603 317 L 606 319 L 610 313"/>
  <line x1="606" y1="319" x2="603" y2="317"/>
  <path class="p5" d="M 609 305 L 605 303 L 602 309 L 606 311 L 609 305"/>
  <path class="p5" d="M 605 303 L 601 301 L 598 307 L 602 309 L 605 303"/>
  <path class="p5" d="M 606 311 L 602 309 L 599 315 L 603 317 L 606 311"/>
  <line x1="603" y1="317" x2="599" y2="315"/>
  <path class="p5" d="M 602 309 L 598 307 L 595 313 L 599 315 L 602 309"/>
  <line x1="599" y1="315" x2="595" y2="313"/>
  <path class="p5" d="M 601 301 L 597 299 L 595 305 L 598 307 L 601 301"/>
  <path class="p5" d="M 597 299 L 593 297 L 591 303 L 595 305 L 597 299"/>
  <path class="p5" d="M 598 307 L 595 305 L 592 311 L 595 313 L 598 307"/>
  <line x1="595" y1="313" x2="592" y2="311"/>
  <path class="p5" d="M 595 305 L 591 303 L 588 309 L 592 311 L 595 305"/>
  <line x1="592" y1="311" x2="588" y2="309"/>
  <path class="p5" d="M 593 297 L 589 296 L 587 302 L 591 303 L 593 297"/>
  <path class="p5" d="M 589 296 L 585 294 L 583 300 L 587 302 L 589 296"/>
  <path class="p5" d="M 591 303 L 587 302 L 584 308 L 588 309 L 591 303"/>
  <line x1="588" y1="309" x2="584" y2="308"/>
  <path class="p5" d="M 587 302 L 583 300 L 580 306 L 584 308 L 587 302"/>
  <line x1="584" y1="308" x2="580" y2="306"/>
  <path class="p5" d="M 585 294 L 581 292 L 579 298 L 583 300 L 585 294"/>
  <path class="p5" d="M 581 292 L 577 291 L 575 297 L 579 298 L 581 292"/>
  <path class="p5" d="M 583 300 L 579 298 L 577 304 L 580 306 L 583 300"/>
  <line x1="580" y1="306" x2="577" y2="304"/>
  <path class="p5" d="M 579 298 L 575 297 L 573 303 L 577 304 L 579 298"/>
  <line x1="577" y1="304" x2="573" y2="303"/>
  <path class="p5" d="M 577 291 L 573 289 L 571 295 L 575 297 L 577 291"/>
  <path class="p5" d="M 573 289 L 569 288 L 567 294 L 571 295 L 573 289"/>
  <path class="p5" d="M 575 297 L 571 295 L 569 302 L 573 303 L 575 297"/>
  <line x1="573" y1="303" x2="569" y2="302"/>
  <path class="p5" d="M 571 295 L 567 294 L 565 300 L 569 302 L 571 295"/>
  <line x1="569" y1="302" x2="565" y2="300"/>
  <path class="p5" d="M 569 288 L 565 286 L 563 293 L 567 294 L 569 288"/>
  <path class="p5" d="M 565 286 L 561 285 L 559 292 L 563 293 L 565 286"/>
  <path class="p5" d="M 567 294 L 563 293 L 561 299 L 565 300 L 567 294"/>
  <line x1="565" y1="300" x2="561" y2="299"/>
  <path class="p5" d="M 563 293 L 559 292 L 557 298 L 561 299 L 563 293"/>
  <line x1="561" y1="299" x2="557" y2="298"/>
  <path class="p5" d="M 561 285 L 556 284 L 555 290 L 559 292 L 561 285"/>
  <path class="p5" d="M 556 284 L 552 283 L 551 289 L 555 290 L 556 284"/>
  <path class="p5" d="M 559 292 L 555 290 L 553 297 L 557 298 L 559 292"/>
  <line x1="557" y1="298" x2="553" y2="297"/>
  <path class="p5" d="M 555 290 L 551 289 L 549 296 L 553 297 L 555 290"/>
  <line x1="553" y1="297" x2="549" y2="296"/>
  <path class="p5" d="M 552 283 L 548 282 L 546 288 L 551 289 L 552 283"/>
  <path class="p5" d="M 548 282 L 544 281 L 542 288 L 546 288 L 548 282"/>
  <path class="p5" d="M 551 289 L 546 288 L 545 295 L 549 296 L 551 289"/>
  <line x1="549" y1="296" x2="545" y2="295"/>
  <path class="p5" d="M 546 288 L 542 288 L 541 294 L 545 295 L 546 288"/>
  <line x1="545" y1="295" x2="541" y2="294"/>
  <path class="p5" d="M 544 281 L 539 280 L 538 287 L 542 288 L 544 281"/>
  <path class="p5" d="M 539 280 L 535 280 L 534 286 L 538 287 L 539 280"/>
  <path class="p5" d="M 542 288 L 538 287 L 537 293 L 541 294 L 542 288"/>
  <line x1="541" y1="294" x2="537" y2="293"/>
  <path class="p5" d="M 538 287 L 534 286 L 533 293 L 537 293 L 538 287"/>
  <line x1="537" y1="293" x2="533" y2="293"/>
  <path class="p5" d="M 535 280 L 531 279 L 530 285 L 534 286 L 535 280"/>
  <path class="p5" d="M 531 279 L 526 278 L 525 285 L 530 285 L 531 279"/>
  <path class="p5" d="M 534 286 L 530 285 L 529 292 L 533 293 L 534 286"/>
  <line x1="533" y1="293" x2="529" y2="292"/>
  <path class="p5" d="M 530 285 L 525 285 L 525 291 L 529 292 L 530 285"/>
  <line x1="529" y1="292" x2="525" y2="291"/>
  <path class="p5" d="M 526 278 L 522 278 L 521 284 L 525 285 L 526 278"/>
  <path class="p5" d="M 522 278 L 518 278 L 517 284 L 521 284 L 522 278"/>
  <path class="p5" d="M 525 285 L 521 284 L 521 291 L 525 291 L 525 285"/>
  <line x1="525" y1="291" x2="521" y2="291"/>
  <path class="p5" d="M 521 284 L 517 284 L 516 291 L 521 291 L 521 284"/>
  <line x1="521" y1="291" x2="516" y2="291"/>
  <path class="p5" d="M 518 278 L 513 277 L 513 284 L 517 284 L 518 278"/>
  <path class="p5" d="M 513 277 L 509 277 L 509 284 L 513 284 L 513 277"/>
  <path class="p5" d="M 517 284 L 513 284 L 512 290 L 516 291 L 517 284"/>
  <line x1="516" y1="291" x2="512" y2="290"/>
  <path class="p5" d="M 513 284 L 509 284 L 508 290 L 512 290 L 513 284"/>
  <line x1="512" y1="290" x2="508" y2="290"/>
  <path class="p5" d="M 509 277 L 504 277 L 504 283 L 509 284 L 509 277"/>
  <path class="p5" d="M 504 277 L 500 277 L 500 283 L 504 283 L 504 277"/>
  <path class="p5" d="M 509 284 L 504 283 L 504 290 L 508 290 L 509 284"/>
  <line x1="508" y1="290" x2="504" y2="290"/>
  <path class="p5" d="M 504 283 L 500 283 L 500 290 L 504 290 L 504 283"/>
  <line x1="504" y1="290" x2="500" y2="290"/>
  <path class="p5" d="M 500 277 L 496 277 L 496 283 L 500 283 L 500 277"/>
  <path class="p5" d="M 496 277 L 491 277 L 491 284 L 496 283 L 496 277"/>
  <path class="p5" d="M 500 283 L 496 283 L 496 290 L 500 290 L 500 283"/>
  <line x1="500" y1="290" x2="496" y2="290"/>
  <path class="p5" d="M 496 283 L 491 284 L 492 290 L 496 290 L 496 283"/>
  <line x1="496" y1="290" x2="492" y2="290"/>
  <path class="p5" d="M 491 277 L 487 277 L 487 284 L 491 284 L 491 277"/>
  <path class="p5" d="M 487 277 L 482 278 L 483 284 L 487 284 L 487 277"/>
  <path class="p5" d="M 491 284 L 487 284 L 488 290 L 492 290 L 491 284"/>
  <line x1="492" y1="290" x2="488" y2="290"/>
  <path class="p5" d="M 487 284 L 483 284 L 484 291 L 488 290 L 487 284"/>
  <line x1="488" y1="290" x2="484" y2="291"/>
  <path class="p5" d="M 482 278 L 478 278 L 479 284 L 483 284 L 482 278"/>
  <path class="p5" d="M 478 278 L 474 278 L 475 285 L 479 284 L 478 278"/>
  <path class="p5" d="M 483 284 L 479 284 L 479 291 L 484 291 L 483 284"/>
  <line x1="484" y1="291" x2="479" y2="291"/>
  <path class="p5" d="M 479 284 L 475 285 L 475 291 L 479 291 L 479 284"/>
  <line x1="479" y1="291" x2="475" y2="291"/>
  <path class="p5" d="M 474 278 L 469 279 L 470 285 L 475 285 L 474 278"/>
  <path class="p5" d="M 469 279 L 465 280 L 466 286 L 470 285 L 469 279"/>
  <path class="p5" d="M 475 285 L 470 285 L 471 292 L 475 291 L 475 285"/>
  <line x1="475" y1="291" x2="471" y2="292"/>
  <path class="p5" d="M 470 285 L 466 286 L 467 293 L 471 292 L 470 285"/>
  <line x1="471" y1="292" x2="467" y2="293"/>
  <path class="p5" d="M 465 280 L 461 280 L 462 287 L 466 286 L 465 280"/>
  <path class="p5" d="M 461 280 L 456 281 L 458 288 L 462 287 L 461 280"/>
  <path class="p5" d="M 466 286 L 462 287 L 463 293 L 467 293 L 466 286"/>
  <line x1="467" y1="293" x2="463" y2="293"/>
  <path class="p5" d="M 462 287 L 458 288 L 459 294 L 463 293 L 462 287"/>
  <line x1="463" y1="293" x2="459" y2="294"/>
  <path class="p5" d="M 456 281 L 452 282 L 454 288 L 458 288 L 456 281"/>
  <path class="p5" d="M 452 282 L 448 283 L 449 289 L 454 288 L 452 282"/>
  <path class="p5" d="M 458 288 L 454 288 L 455 295 L 459 294 L 458 288"/>
  <line x1="459" y1="294" x2="455" y2="295"/>
  <path class="p5" d="M 454 288 L 449 289 L 451 296 L 455 295 L 454 288"/>
  <line x1="455" y1="295" x2="451" y2="296"/>
  <path class="p5" d="M 448 283 L 444 284 L 445 290 L 449 289 L 448 283"/>
  <path class="p5" d="M 444 284 L 439 285 L 441 292 L 445 290 L 444 284"/>
  <path class="p5" d="M 449 289 L 445 290 L 447 297 L 451 296 L 449 289"/>
  <line x1="451" y1="296" x2="447" y2="297"/>
  <path class="p5" d="M 445 290 L 441 292 L 443 298 L 447 297 L 445 290"/>
  <line x1="447" y1="297" x2="443" y2="298"/>
  <path class="p5" d="M 439 285 L 435 286 L 437 293 L 441 292 L 439 285"/>
  <path class="p5" d="M 435 286 L 431 288 L 433 294 L 437 293 L 435 286"/>
  <path class="p5" d="M 441 292 L 437 293 L 439 299 L 443 298 L 441 292"/>
  <line x1="443" y1="298" x2="439" y2="299"/>
  <path class="p5" d="M 437 293 L 433 294 L 435 300 L 439 299 L 437 293"/>
  <line x1="439" y1="299" x2="435" y2="300"/>
  <path class="p5" d="M 431 288 L 427 289 L 429 295 L 433 294 L 431 288"/>
  <path class="p5" d="M 427 289 L 423 291 L 425 297 L 429 295 L 427 289"/>
  <path class="p5" d="M 433 294 L 429 295 L 431 302 L 435 300 L 433 294"/>
  <line x1="435" y1="300" x2="431" y2="302"/>
  <path class="p5" d="M 429 295 L 425 297 L 427 303 L 431 302 L 429 295"/>
  <line x1="431" y1="302" x2="427" y2="303"/>
  <path class="p5" d="M 423 291 L 419 292 L 421 298 L 425 297 L 423 291"/>
  <path class="p5" d="M 419 292 L 415 294 L 417 300 L 421 298 L 419 292"/>
  <path class="p5" d="M 425 297 L 421 298 L 423 304 L 427 303 L 425 297"/>
  <line x1="427" y1="303" x2="423" y2="304"/>
  <path class="p5" d="M 421 298 L 417 300 L 420 306 L 423 304 L 421 298"/>
  <line x1="423" y1="304" x2="420" y2="306"/>
  <path class="p5" d="M 415 294 L 411 296 L 413 302 L 417 300 L 415 294"/>
  <path class="p5" d="M 411 296 L 407 297 L 409 303 L 413 302 L 411 296"/>
  <path class="p5" d="M 417 300 L 413 302 L 416 308 L 420 306 L 417 300"/>
  <line x1="420" y1="306" x2="416" y2="308"/>
  <path class="p5" d="M 413 302 L 409 303 L 412 309 L 416 308 L 413 302"/>
  <line x1="416" y1="308" x2="412" y2="309"/>
  <path class="p5" d="M 407 297 L 403 299 L 405 305 L 409 303 L 407 297"/>
  <path class="p5" d="M 403 299 L 399 301 L 402 307 L 405 305 L 403 299"/>
  <path class="p5" d="M 409 303 L 405 305 L 408 311 L 412 309 L 409 303"/>
  <line x1="412" y1="309" x2="408" y2="311"/>
  <path class="p5" d="M 405 305 L 402 307 L 405 313 L 408 311 L 405 305"/>
  <line x1="408" y1="311" x2="405" y2="313"/>
  <path class="p5" d="M 399 301 L 395 303 L 398 309 L 402 307 L 399 301"/>
  <path class="p5" d="M 395 303 L 391 305 L 394 311 L 398 309 L 395 303"/>
  <path class="p5" d="M 402 307 L 398 309 L 401 315 L 405 313 L 402 307"/>
  <line x1="405" y1="313" x2="401" y2="315"/>
  <path class="p5" d="M 398 309 L 394 311 L 397 317 L 401 315 L 398 309"/>
  <line x1="401" y1="315" x2="397" y2="317"/>
  <path class="p5" d="M 391 305 L 387 308 L 390 313 L 394 311 L 391 305"/>
  <path class="p5" d="M 387 308 L 383 310 L 387 315 L 390 313 L 387 308"/>
  <path class="p5" d="M 394 311 L 390 313 L 394 319 L 397 317 L 394 311"/>
  <line x1="397" y1="317" x2="394" y2="319"/>
  <path class="p5" d="M 390 313 L 387 315 L 390 321 L 394 319 L 390 313"/>
  <line x1="394" y1="319" x2="390" y2="321"/>
  <path class="p5" d="M 383 310 L 380 312 L 383 318 L 387 315 L 383 310"/>
  <path class="p5" d="M 380 312 L 376 314 L 380 320 L 383 318 L 380 312"/>
  <path class="p5" d="M 387 315 L 383 318 L 387 323 L 390 321 L 387 315"/>
  <line x1="390" y1="321" x2="387" y2="323"/>
  <path class="p5" d="M 383 318 L 380 320 L 383 325 L 387 323 L 383 318"/>
  <line x1="387" y1="323" x2="383" y2="325"/>
  <path class="p5" d="M 376 314 L 372 317 L 376 322 L 380 320 L 376 314"/>
  <path class="p5" d="M 372 317 L 369 319 L 373 325 L 376 322 L 372 317"/>
  <path class="p5" d="M 380 320 L 376 322 L 380 328 L 383 325 L 380 320"/>
  <line x1="383" y1="325" x2="380" y2="328"/>
  <path class="p5" d="M 376 322 L 373 325 L 377 330 L 380 328 L 376 322"/>
  <line x1="380" y1="328" x2="377" y2="330"/>
  <path class="p5" d="M 369 319 L 365 322 L 369 327 L 373 325 L 369 319"/>
  <path class="p5" d="M 365 322 L 362 325 L 366 330 L 369 327 L 365 322"/>
  <path class="p5" d="M 373 325 L 369 327 L 373 333 L 377 330 L 373 325"/>
  <line x1="377" y1="330" x2="373" y2="333"/>
  <path class="p5" d="M 369 327 L 366 330 L 370 335 L 373 333 L 369 327"/>
  <line x1="373" y1="333" x2="370" y2="335"/>
  <path class="p5" d="M 362 325 L 358 328 L 363 333 L 366 330 L 362 325"/>
  <path class="p5" d="M 358 328 L 355 330 L 359 335 L 363 333 L 358 328"/>
  <path class="p5" d="M 366 330 L 363 333 L 367 338 L 370 335 L 366 330"/>
  <line x1="370" y1="335" x2="367" y2="338"/>
  <path class="p5" d="M 363 333 L 359 335 L 364 340 L 367 338 L 363 333"/>
  <line x1="367" y1="338" x2="364" y2="340"/>
  <path class="p5" d="M 355 330 L 352 333 L 356 338 L 359 335 L 355 330"/>
  <path class="p5" d="M 352 333 L 349 336 L 353 341 L 356 338 L 352 333"/>
  <path class="p5" d="M 359 335 L 356 338 L 361 343 L 364 340 L 359 335"/>
  <line x1="364" y1="340" x2="361" y2="343"/>
  <path class="p5" d="M 356 338 L 353 341 L 357 346 L 361 343 L 356 338"/>
  <line x1="361" y1="343" x2="357" y2="346"/>
  <path class="p5" d="M 349 336 L 345 339 L 350 344 L 353 341 L 349 336"/>
  <path class="p5" d="M 345 339 L 342 342 L 347 347 L 350 344 L 345 339"/>
  <path class="p5" d="M 353 341 L 350 344 L 354 349 L 357 346 L 353 341"/>
  <line x1="357" y1="346" x2="354" y2="349"/>
  <path class="p5" d="M 350 344 L 347 347 L 352 352 L 354 349 L 350 344"/>
  <line x1="354" y1="349" x2="352" y2="352"/>
  <path class="p5" d="M 342 342 L 339 345 L 344 350 L 347 347 L 342 342"/>
  <path class="p5" d="M 339 345 L 336 349 L 341 353 L 344 350 L 339 345"/>
  <path class="p5" d="M 347 347 L 344 350 L 349 354 L 352 352 L 347 347"/>
  <line x1="352" y1="352" x2="349" y2="354"/>
  <path class="p5" d="M 344 350 L 341 353 L 346 357 L 349 354 L 344 350"/>
  <line x1="349" y1="354" x2="346" y2="357"/>
  <path class="p5" d="M 336 349 L 333 352 L 338 356 L 341 353 L 336 349"/>
  <path class="p5" d="M 333 352 L 330 355 L 335 359 L 338 356 L 333 352"/>
  <path class="p5" d="M 341 353 L 338 356 L 343 361 L 346 357 L 341 353"/>
  <line x1="346" y1="357" x2="343" y2="361"/>
  <path class="p5" d="M 338 356 L 335 359 L 340 364 L 343 361 L 338 356"/>
  <line x1="343" y1="361" x2="340" y2="364"/>
  <path class="p5" d="M 330 355 L 328 358 L 333 363 L 335 359 L 330 355"/>
  <path class="p5" d="M 328 358 L 325 362 L 330 366 L 333 363 L 328 358"/>
  <path class="p5" d="M 335 359 L 333 363 L 338 367 L 340 364 L 335 359"/>
  <line x1="340" y1="364" x2="338" y2="367"/>
  <path class="p5" d="M 333 363 L 330 366 L 335 370 L 338 367 L 333 363"/>
  <line x1="338" y1="367" x2="335" y2="370"/>
  <path class="p5" d="M 325 362 L 322 365 L 327 369 L 330 366 L 325 362"/>
  <path class="p5" d="M 322 365 L 319 369 L 325 373 L 327 369 L 322 365"/>
  <path class="p5" d="M 330 366 L 327 369 L 333 373 L 335 370 L 330 366"/>
  <line x1="335" y1="370" x2="333" y2="373"/>
  <path class="p5" d="M 327 369 L 325 373 L 330 377 L 333 373 L 327 369"/>
  <line x1="333" y1="373" x2="330" y2="377"/>
  <path class="p5" d="M 319 369 L 317 372 L 322 376 L 325 373 L 319 369"/>
  <path class="p5" d="M 317 372 L 314 376 L 320 380 L 322 376 L 317 372"/>
  <path class="p5" d="M 325 373 L 322 376 L 328 380 L 330 377 L 325 373"/>
  <line x1="330" y1="377" x2="328" y2="380"/>
  <path class="p5" d="M 322 376 L 320 380 L 325 383 L 328 380 L 322 376"/>
  <line x1="328" y1="380" x2="325" y2="383"/>
  <path class="p5" d="M 314 376 L 312 380 L 318 383 L 320 380 L 314 376"/>
  <path class="p5" d="M 312 380 L 310 383 L 315 387 L 318 383 L 312 380"/>
  <path class="p5" d="M 320 380 L 318 383 L 323 387 L 325 383 L 320 380"/>
  <line x1="325" y1="383" x2="323" y2="387"/>
  <path class="p5" d="M 318 383 L 315 387 L 321 390 L 323 387 L 318 383"/>
  <line x1="323" y1="387" x2="321" y2="390"/>
  <path class="p5" d="M 310 383 L 308 387 L 313 390 L 315 387 L 310 383"/>
  <path class="p5" d="M 308 387 L 305 391 L 311 394 L 313 390 L 308 387"/>
  <path class="p5" d="M 315 387 L 313 390 L 319 394 L 321 390 L 315 387"/>
  <line x1="321" y1="390" x2="319" y2="394"/>
  <path class="p5" d="M 313 390 L 311 394 L 317 397 L 319 394 L 313 390"/>
  <line x1="319" y1="394" x2="317" y2="397"/>
  <path class="p5" d="M 305 391 L 303 395 L 309 398 L 311 394 L 305 391"/>
  <path class="p5" d="M 303 395 L 301 399 L 307 402 L 309 398 L 303 395"/>
  <path class="p5" d="M 311 394 L 309 398 L 315 401 L 317 397 L 311 394"/>
  <line x1="317" y1="397" x2="315" y2="401"/>
  <path class="p5" d="M 309 398 L 307 402 L 313 405 L 315 401 L 309 398"/>
  <line x1="315" y1="401" x2="313" y2="405"/>
  <path class="p5" d="M 301 399 L 299 403 L 305 405 L 307 402 L 301 399"/>
  <path class="p5" d="M 299 403 L 297 407 L 303 409 L 305 405 L 299 403"/>
  <path class="p5" d="M 307 402 L 305 405 L 311 408 L 313 405 L 307 402"/>
  <line x1="313" y1="405" x2="311" y2="408"/>
  <path class="p5" d="M 305 405 L 303 409 L 309 412 L 311 408 L 305 405"/>
  <line x1="311" y1="408" x2="309" y2="412"/>
  <path class="p5" d="M 297 407 L 296 411 L 302 413 L 303 409 L 297 407"/>
  <path class="p5" d="M 296 411 L 294 415 L 300 417 L 302 413 L 296 411"/>
  <path class="p5" d="M 303 409 L 302 413 L 308 416 L 309 412 L 303 409"/>
  <line x1="309" y1="412" x2="308" y2="416"/>
  <path class="p5" d="M 302 413 L 300 417 L 306 420 L 308 416 L 302 413"/>
  <line x1="308" y1="416" x2="306" y2="420"/>
  <path class="p5" d="M 294 415 L 292 419 L 298 421 L 300 417 L 294 415"/>
  <path class="p5" d="M 292 419 L 291 423 L 297 425 L 298 421 L 292 419"/>
  <path class="p5" d="M 300 417 L 298 421 L 304 423 L 306 420 L 300 417"/>
  <line x1="306" y1="420" x2="304" y2="423"/>
  <path class="p5" d="M 298 421 L 297 425 L 303 427 L 304 423 L 298 421"/>
  <line x1="304" y1="423" x2="303" y2="427"/>
  <path class="p5" d="M 291 423 L 289 427 L 295 429 L 297 425 L 291 423"/>
  <path class="p5" d="M 289 427 L 288 431 L 294 433 L 295 429 L 289 427"/>
  <path class="p5" d="M 297 425 L 295 429 L 302 431 L 303 427 L 297 425"/>
  <line x1="303" y1="427" x2="302" y2="431"/>
  <path class="p5" d="M 295 429 L 294 433 L 300 435 L 302 431 L 295 429"/>
  <line x1="302" y1="431" x2="300" y2="435"/>
  <path class="p5" d="M 288 431 L 286 435 L 293 437 L 294 433 L 288 431"/>
  <path class="p5" d="M 286 435 L 285 439 L 292 441 L 293 437 L 286 435"/>
  <path class="p5" d="M 294 433 L 293 437 L 299 439 L 300 435 L 294 433"/>
  <line x1="300" y1="435" x2="299" y2="439"/>
  <path class="p5" d="M 293 437 L 292 441 L 298 443 L 299 439 L 293 437"/>
  <line x1="299" y1="439" x2="298" y2="443"/>
  <path class="p5" d="M 285 439 L 284 444 L 290 445 L 292 441 L 285 439"/>
  <path class="p5" d="M 284 444 L 283 448 L 289 449 L 290 445 L 284 444"/>
  <path class="p5" d="M 292 441 L 290 445 L 297 447 L 298 443 L 292 441"/>
  <line x1="298" y1="443" x2="297" y2="447"/>
  <path class="p5" d="M 290 445 L 289 449 L 296 451 L 297 447 L 290 445"/>
  <line x1="297" y1="447" x2="296" y2="451"/>
  <path class="p5" d="M 283 448 L 282 452 L 288 454 L 289 449 L 283 448"/>
  <path class="p5" d="M 282 452 L 281 456 L 288 458 L 288 454 L 282 452"/>
  <path class="p5" d="M 289 449 L 288 454 L 295 455 L 296 451 L 289 449"/>
  <line x1="296" y1="451" x2="295" y2="455"/>
  <path class="p5" d="M 288 454 L 288 458 L 294 459 L 295 455 L 288 454"/>
  <line x1="295" y1="455" x2="294" y2="459"/>
  <path class="p5" d="M 281 456 L 280 461 L 287 462 L 288 458 L 281 456"/>
  <path class="p5" d="M 280 461 L 280 465 L 286 466 L 287 462 L 280 461"/>
  <path class="p5" d="M 288 458 L 287 462 L 293 463 L 294 459 L 288 458"/>
  <line x1="294" y1="459" x2="293" y2="463"/>
  <path class="p5" d="M 287 462 L 286 466 L 293 467 L 293 463 L 287 462"/>
  <line x1="293" y1="463" x2="293" y2="467"/>
  <path class="p5" d="M 280 465 L 279 469 L 285 470 L 286 466 L 280 465"/>
  <path class="p5" d="M 279 469 L 278 474 L 285 475 L 285 470 L 279 469"/>
  <path class="p5" d="M 286 466 L 285 470 L 292 471 L 293 467 L 286 466"/>
  <line x1="293" y1="467" x2="292" y2="471"/>
  <path class="p5" d="M 285 470 L 285 475 L 291 475 L 292 471 L 285 470"/>
  <line x1="292" y1="471" x2="291" y2="475"/>
  <path class="p5" d="M 278 474 L 278 478 L 284 479 L 285 475 L 278 474"/>
  <path class="p5" d="M 278 478 L 278 482 L 284 483 L 284 479 L 278 478"/>
  <path class="p5" d="M 285 475 L 284 479 L 291 479 L 291 475 L 285 475"/>
  <line x1="291" y1="475" x2="291" y2="479"/>
  <path class="p5" d="M 284 479 L 284 483 L 291 484 L 291 479 L 284 479"/>
  <line x1="291" y1="479" x2="291" y2="484"/>
  <path class="p5" d="M 278 482 L 277 487 L 284 487 L 284 483 L 278 482"/>
  <path class="p5" d="M 277 487 L 277 491 L 284 491 L 284 487 L 277 487"/>
  <path class="p5" d="M 284 483 L 284 487 L 290 488 L 291 484 L 284 483"/>
  <line x1="291" y1="484" x2="290" y2="488"/>
  <path class="p5" d="M 284 487 L 284 491 L 290 492 L 290 488 L 284 487"/>
  <line x1="290" y1="488" x2="290" y2="492"/>
  <path class="p5" d="M 277 491 L 277 496 L 283 496 L 284 491 L 277 491"/>
  <path class="p5" d="M 277 496 L 277 500 L 283 500 L 283 496 L 277 496"/>
  <path class="p5" d="M 284 491 L 283 496 L 290 496 L 290 492 L 284 491"/>
  <line x1="290" y1="492" x2="290" y2="496"/>
  <path class="p5" d="M 283 496 L 283 500 L 290 500 L 290 496 L 283 496"/>
  <line x1="290" y1="496" x2="290" y2="500"/>
  <path class="p5" d="M 277 500 L 277 504 L 283 504 L 283 500 L 277 500"/>
  <path class="p5" d="M 277 504 L 277 509 L 284 509 L 283 504 L 277 504"/>
  <path class="p5" d="M 283 500 L 283 504 L 290 504 L 290 500 L 283 500"/>
  <line x1="290" y1="500" x2="290" y2="504"/>
  <path class="p5" d="M 283 504 L 284 509 L 290 508 L 290 504 L 283 504"/>
  <line x1="290" y1="504" x2="290" y2="508"/>
  <path class="p5" d="M 277 509 L 277 513 L 284 513 L 284 509 L 277 509"/>
  <path class="p5" d="M 277 513 L 278 518 L 284 517 L 284 513 L 277 513"/>
  <path class="p5" d="M 284 509 L 284 513 L 290 512 L 290 508 L 284 509"/>
  <line x1="290" y1="508" x2="290" y2="512"/>
  <path class="p5" d="M 284 513 L 284 517 L 291 516 L 290 512 L 284 513"/>
  <line x1="290" y1="512" x2="291" y2="516"/>
  <path class="p5" d="M 278 518 L 278 522 L 284 521 L 284 517 L 278 518"/>
  <path class="p5" d="M 278 522 L 278 526 L 285 525 L 284 521 L 278 522"/>
  <path class="p5" d="M 284 517 L 284 521 L 291 521 L 291 516 L 284 517"/>
  <line x1="291" y1="516" x2="291" y2="521"/>
  <path class="p5" d="M 284 521 L 285 525 L 291 525 L 291 521 L 284 521"/>
  <line x1="291" y1="521" x2="291" y2="525"/>
  <path class="p5" d="M 278 526 L 279 531 L 285 530 L 285 525 L 278 526"/>
  <path class="p5" d="M 279 531 L 280 535 L 286 534 L 285 530 L 279 531"/>
  <path class="p5" d="M 285 525 L 285 530 L 292 529 L 291 525 L 285 525"/>
  <line x1="291" y1="525" x2="292" y2="529"/>
  <path class="p5" d="M 285 530 L 286 534 L 293 533 L 292 529 L 285 530"/>
  <line x1="292" y1="529" x2="293" y2="533"/>
  <path class="p5" d="M 280 535 L 280 539 L 287 538 L 286 534 L 280 535"/>
  <path class="p5" d="M 280 539 L 281 544 L 288 542 L 287 538 L 280 539"/>
  <path class="p5" d="M 286 534 L 287 538 L 293 537 L 293 533 L 286 534"/>
  <line x1="293" y1="533" x2="293" y2="537"/>
  <path class="p5" d="M 287 538 L 288 542 L 294 541 L 293 537 L 287 538"/>
  <line x1="293" y1="537" x2="294" y2="541"/>
  <path class="p5" d="M 281 544 L 282 548 L 288 546 L 288 542 L 281 544"/>
  <path class="p5" d="M 282 548 L 283 552 L 289 551 L 288 546 L 282 548"/>
  <path class="p5" d="M 288 542 L 288 546 L 295 545 L 294 541 L 288 542"/>
  <line x1="294" y1="541" x2="295" y2="545"/>
  <path class="p5" d="M 288 546 L 289 551 L 296 549 L 295 545 L 288 546"/>
  <line x1="295" y1="545" x2="296" y2="549"/>
  <path class="p5" d="M 283 552 L 284 556 L 290 555 L 289 551 L 283 552"/>
  <path class="p5" d="M 284 556 L 285 561 L 292 559 L 290 555 L 284 556"/>
  <path class="p5" d="M 289 551 L 290 555 L 297 553 L 296 549 L 289 551"/>
  <line x1="296" y1="549" x2="297" y2="553"/>
  <path class="p5" d="M 290 555 L 292 559 L 298 557 L 297 553 L 290 555"/>
  <line x1="297" y1="553" x2="298" y2="557"/>
  <path class="p5" d="M 285 561 L 286 565 L 293 563 L 292 559 L 285 561"/>
  <path class="p5" d="M 286 565 L 288 569 L 294 567 L 293 563 L 286 565"/>
  <path class="p5" d="M 292 559 L 293 563 L 299 561 L 298 557 L 292 559"/>
  <line x1="298" y1="557" x2="299" y2="561"/>
  <path class="p5" d="M 293 563 L 294 567 L 300 565 L 299 561 L 293 563"/>
  <line x1="299" y1="561" x2="300" y2="565"/>
  <path class="p5" d="M 288 569 L 289 573 L 295 571 L 294 567 L 288 569"/>
  <path class="p5" d="M 289 573 L 291 577 L 297 575 L 295 571 L 289 573"/>
  <path class="p5" d="M 294 567 L 295 571 L 302 569 L 300 565 L 294 567"/>
  <line x1="300" y1="565" x2="302" y2="569"/>
  <path class="p5" d="M 295 571 L 297 575 L 303 573 L 302 569 L 295 571"/>
  <line x1="302" y1="569" x2="303" y2="573"/>
  <path class="p5" d="M 291 577 L 292 581 L 298 579 L 297 575 L 291 577"/>
  <path class="p5" d="M 292 581 L 294 585 L 300 583 L 298 579 L 292 581"/>
  <path class="p5" d="M 297 575 L 298 579 L 304 577 L 303 573 L 297 575"/>
  <line x1="303" y1="573" x2="304" y2="577"/>
  <path class="p5" d="M 298 579 L 300 583 L 306 580 L 304 577 L 298 579"/>
  <line x1="304" y1="577" x2="306" y2="580"/>
  <path class="p5" d="M 294 585 L 296 589 L 302 587 L 300 583 L 294 585"/>
  <path class="p5" d="M 296 589 L 297 593 L 303 591 L 302 587 L 296 589"/>
  <path class="p5" d="M 300 583 L 302 587 L 308 584 L 306 580 L 300 583"/>
  <line x1="306" y1="580" x2="308" y2="584"/>
  <path class="p5" d="M 302 587 L 303 591 L 309 588 L 308 584 L 302 587"/>
  <line x1="308" y1="584" x2="309" y2="588"/>
  <path class="p5" d="M 297 593 L 299 597 L 305 595 L 303 591 L 297 593"/>
  <path class="p5" d="M 299 597 L 301 601 L 307 598 L 305 595 L 299 597"/>
  <path class="p5" d="M 303 591 L 305 595 L 311 592 L 309 588 L 303 591"/>
  <line x1="309" y1="588" x2="311" y2="592"/>
  <path class="p5" d="M 305 595 L 307 598 L 313 595 L 311 592 L 305 595"/>
  <line x1="311" y1="592" x2="313" y2="595"/>
  <path class="p5" d="M 301 601 L 303 605 L 309 602 L 307 598 L 301 601"/>
  <path class="p5" d="M 303 605 L 305 609 L 311 606 L 309 602 L 303 605"/>
  <path class="p5" d="M 307 598 L 309 602 L 315 599 L 313 595 L 307 598"/>
  <line x1="313" y1="595" x2="315" y2="599"/>
  <path class="p5" d="M 309 602 L 311 606 L 317 603 L 315 599 L 309 602"/>
  <line x1="315" y1="599" x2="317" y2="603"/>
  <path class="p5" d="M 305 609 L 308 613 L 313 610 L 311 606 L 305 609"/>
  <path class="p5" d="M 308 613 L 310 617 L 315 613 L 313 610 L 308 613"/>
  <path class="p5" d="M 311 606 L 313 610 L 319 606 L 317 603 L 311 606"/>
  <line x1="317" y1="603" x2="319" y2="606"/>
  <path class="p5" d="M 313 610 L 315 613 L 321 610 L 319 606 L 313 610"/>
  <line x1="319" y1="606" x2="321" y2="610"/>
  <path class="p5" d="M 310 617 L 312 620 L 318 617 L 315 613 L 310 617"/>
  <path class="p5" d="M 312 620 L 314 624 L 320 620 L 318 617 L 312 620"/>
  <path class="p5" d="M 315 613 L 318 617 L 323 613 L 321 610 L 315 613"/>
  <line x1="321" y1="610" x2="323" y2="613"/>
  <path class="p5" d="M 318 617 L 320 620 L 325 617 L 323 613 L 318 617"/>
  <line x1="323" y1="613" x2="325" y2="617"/>
  <path class="p5" d="M 314 624 L 317 628 L 322 624 L 320 620 L 314 624"/>
  <path class="p5" d="M 317 628 L 319 631 L 325 627 L 322 624 L 317 628"/>
  <path class="p5" d="M 320 620 L 322 624 L 328 620 L 325 617 L 320 620"/>
  <line x1="325" y1="617" x2="328" y2="620"/>
  <path class="p5" d="M 322 624 L 325 627 L 330 623 L 328 620 L 322 624"/>
  <line x1="328" y1="620" x2="330" y2="623"/>
  <path class="p5" d="M 319 631 L 322 635 L 327 631 L 325 627 L 319 631"/>
  <path class="p5" d="M 322 635 L 325 638 L 330 634 L 327 631 L 322 635"/>
  <path class="p5" d="M 325 627 L 327 631 L 333 627 L 330 623 L 325 627"/>
  <line x1="330" y1="623" x2="333" y2="627"/>
  <path class="p5" d="M 327 631 L 330 634 L 335 630 L 333 627 L 327 631"/>
  <line x1="333" y1="627" x2="335" y2="630"/>
  <path class="p5" d="M 325 638 L 328 642 L 333 637 L 330 634 L 325 638"/>
  <path class="p5" d="M 328 642 L 330 645 L 335 641 L 333 637 L 328 642"/>
  <path class="p5" d="M 330 634 L 333 637 L 338 633 L 335 630 L 330 634"/>
  <line x1="335" y1="630" x2="338" y2="633"/>
  <path class="p5" d="M 333 637 L 335 641 L 340 636 L 338 633 L 333 637"/>
  <line x1="338" y1="633" x2="340" y2="636"/>
  <path class="p5" d="M 330 645 L 333 648 L 338 644 L 335 641 L 330 645"/>
  <path class="p5" d="M 333 648 L 336 651 L 341 647 L 338 644 L 333 648"/>
  <path class="p5" d="M 335 641 L 338 644 L 343 639 L 340 636 L 335 641"/>
  <line x1="340" y1="636" x2="343" y2="639"/>
  <path class="p5" d="M 338 644 L 341 647 L 346 643 L 343 639 L 338 644"/>
  <line x1="343" y1="639" x2="346" y2="643"/>
  <path class="p5" d="M 336 651 L 339 655 L 344 650 L 341 647 L 336 651"/>
  <path class="p5" d="M 339 655 L 342 658 L 347 653 L 344 650 L 339 655"/>
  <path class="p5" d="M 341 647 L 344 650 L 349 646 L 346 643 L 341 647"/>
  <line x1="346" y1="643" x2="349" y2="646"/>
  <path class="p5" d="M 344 650 L 347 653 L 352 648 L 349 646 L 344 650"/>
  <line x1="349" y1="646" x2="352" y2="648"/>
  <path class="p5" d="M 342 658 L 345 661 L 350 656 L 347 653 L 342 658"/>
  <path class="p5" d="M 345 661 L 349 664 L 353 659 L 350 656 L 345 661"/>
  <path class="p5" d="M 347 653 L 350 656 L 354 651 L 352 648 L 347 653"/>
  <line x1="352" y1="648" x2="354" y2="651"/>
  <path class="p5" d="M 350 656 L 353 659 L 357 654 L 354 651 L 350 656"/>
  <line x1="354" y1="651" x2="357" y2="654"/>
  <path class="p5" d="M 349 664 L 352 667 L 356 662 L 353 659 L 349 664"/>
  <path class="p5" d="M 352 667 L 355 670 L 359 665 L 356 662 L 352 667"/>
  <path class="p5" d="M 353 659 L 356 662 L 361 657 L 357 654 L 353 659"/>
  <line x1="357" y1="654" x2="361" y2="657"/>
  <path class="p5" d="M 356 662 L 359 665 L 364 660 L 361 657 L 356 662"/>
  <line x1="361" y1="657" x2="364" y2="660"/>
  <path class="p5" d="M 355 670 L 358 672 L 363 667 L 359 665 L 355 670"/>
  <path class="p5" d="M 358 672 L 362 675 L 366 670 L 363 667 L 358 672"/>
  <path class="p5" d="M 359 665 L 363 667 L 367 662 L 364 660 L 359 665"/>
  <line x1="364" y1="660" x2="367" y2="662"/>
  <path class="p5" d="M 363 667 L 366 670 L 370 665 L 367 662 L 363 667"/>
  <line x1="367" y1="662" x2="370" y2="665"/>
  <path class="p5" d="M 362 675 L 365 678 L 369 673 L 366 670 L 362 675"/>
  <path class="p5" d="M 365 678 L 369 681 L 373 675 L 369 673 L 365 678"/>
  <path class="p5" d="M 366 670 L 369 673 L 373 667 L 370 665 L 366 670"/>
  <line x1="370" y1="665" x2="373" y2="667"/>
  <path class="p5" d="M 369 673 L 373 675 L 377 670 L 373 667 L 369 673"/>
  <line x1="373" y1="667" x2="377" y2="670"/>
  <path class="p5" d="M 369 681 L 372 683 L 376 678 L 373 675 L 369 681"/>
  <path class="p5" d="M 372 683 L 376 686 L 380 680 L 376 678 L 372 683"/>
  <path class="p5" d="M 373 675 L 376 678 L 380 672 L 377 670 L 373 675"/>
  <line x1="377" y1="670" x2="380" y2="672"/>
  <path class="p5" d="M 376 678 L 380 680 L 383 675 L 380 672 L 376 678"/>
  <line x1="380" y1="672" x2="383" y2="675"/>
  <path class="p5" d="M 376 686 L 380 688 L 383 682 L 380 680 L 376 686"/>
  <path class="p5" d="M 380 688 L 383 690 L 387 685 L 383 682 L 380 688"/>
  <path class="p5" d="M 380 680 L 383 682 L 387 677 L 383 675 L 380 680"/>
  <line x1="383" y1="675" x2="387" y2="677"/>
  <path class="p5" d="M 383 682 L 387 685 L 390 679 L 387 677 L 383 682"/>
  <line x1="387" y1="677" x2="390" y2="679"/>
  <path class="p5" d="M 383 690 L 387 692 L 390 687 L 387 685 L 383 690"/>
  <path class="p5" d="M 387 692 L 391 695 L 394 689 L 390 687 L 387 692"/>
  <path class="p5" d="M 387 685 L 390 687 L 394 681 L 390 679 L 387 685"/>
  <line x1="390" y1="679" x2="394" y2="681"/>
  <path class="p5" d="M 390 687 L 394 689 L 397 683 L 394 681 L 390 687"/>
  <line x1="394" y1="681" x2="397" y2="683"/>
  <path class="p5" d="M 391 695 L 395 697 L 398 691 L 394 689 L 391 695"/>
  <path class="p5" d="M 395 697 L 399 699 L 402 693 L 398 691 L 395 697"/>
  <path class="p5" d="M 394 689 L 398 691 L 401 685 L 397 683 L 394 689"/>
  <line x1="397" y1="683" x2="401" y2="685"/>
  <path class="p5" d="M 398 691 L 402 693 L 405 687 L 401 685 L 398 691"/>
  <line x1="401" y1="685" x2="405" y2="687"/>
  <path class="p5" d="M 399 699 L 403 701 L 405 695 L 402 693 L 399 699"/>
  <path class="p5" d="M 403 701 L 407 703 L 409 697 L 405 695 L 403 701"/>
  <path class="p5" d="M 402 693 L 405 695 L 408 689 L 405 687 L 402 693"/>
  <line x1="405" y1="687" x2="408" y2="689"/>
  <path class="p5" d="M 405 695 L 409 697 L 412 691 L 408 689 L 405 695"/>
  <line x1="408" y1="689" x2="412" y2="691"/>
  <path class="p5" d="M 407 703 L 411 704 L 413 698 L 409 697 L 407 703"/>
  <path class="p5" d="M 411 704 L 415 706 L 417 700 L 413 698 L 411 704"/>
  <path class="p5" d="M 409 697 L 413 698 L 416 692 L 412 691 L 409 697"/>
  <line x1="412" y1="691" x2="416" y2="692"/>
  <path class="p5" d="M 413 698 L 417 700 L 420 694 L 416 692 L 413 698"/>
  <line x1="416" y1="692" x2="420" y2="694"/>
  <path class="p5" d="M 415 706 L 419 708 L 421 702 L 417 700 L 415 706"/>
  <path class="p5" d="M 419 708 L 423 709 L 425 703 L 421 702 L 419 708"/>
  <path class="p5" d="M 417 700 L 421 702 L 423 696 L 420 694 L 417 700"/>
  <line x1="420" y1="694" x2="423" y2="696"/>
  <path class="p5" d="M 421 702 L 425 703 L 427 697 L 423 696 L 421 702"/>
  <line x1="423" y1="696" x2="427" y2="697"/>
  <path class="p5" d="M 423 709 L 427 711 L 429 705 L 425 703 L 423 709"/>
  <path class="p5" d="M 427 711 L 431 712 L 433 706 L 429 705 L 427 711"/>
  <path class="p5" d="M 425 703 L 429 705 L 431 698 L 427 697 L 425 703"/>
  <line x1="427" y1="697" x2="431" y2="698"/>
  <path class="p5" d="M 429 705 L 433 706 L 435 700 L 431 698 L 429 705"/>
  <line x1="431" y1="698" x2="435" y2="700"/>
  <path class="p5" d="M 431 712 L 435 714 L 437 707 L 433 706 L 431 712"/>
  <path class="p5" d="M 435 714 L 439 715 L 441 708 L 437 707 L 435 714"/>
  <path class="p5" d="M 433 706 L 437 707 L 439 701 L 435 700 L 433 706"/>
  <line x1="435" y1="700" x2="439" y2="701"/>
  <path class="p5" d="M 437 707 L 441 708 L 443 702 L 439 701 L 437 707"/>
  <line x1="439" y1="701" x2="443" y2="702"/>
  <path class="p5" d="M 439 715 L 444 716 L 445 710 L 441 708 L 439 715"/>
  <path class="p5" d="M 444 716 L 448 717 L 449 711 L 445 710 L 444 716"/>
  <path class="p5" d="M 441 708 L 445 710 L 447 703 L 443 702 L 441 708"/>
  <line x1="443" y1="702" x2="447" y2="703"/>
  <path class="p5" d="M 445 710 L 449 711 L 451 704 L 447 703 L 445 710"/>
  <line x1="447" y1="703" x2="451" y2="704"/>
  <path class="p5" d="M 448 717 L 452 718 L 454 712 L 449 711 L 448 717"/>
  <path class="p5" d="M 452 718 L 456 719 L 458 712 L 454 712 L 452 718"/>
  <path class="p5" d="M 449 711 L 454 712 L 455 705 L 451 704 L 449 711"/>
  <line x1="451" y1="704" x2="455" y2="705"/>
  <path class="p5" d="M 454 712 L 458 712 L 459 706 L 455 705 L 454 712"/>
  <line x1="455" y1="705" x2="459" y2="706"/>
  <path class="p5" d="M 456 719 L 461 720 L 462 713 L 458 712 L 456 719"/>
  <path class="p5" d="M 461 720 L 465 720 L 466 714 L 462 713 L 461 720"/>
  <path class="p5" d="M 458 712 L 462 713 L 463 707 L 459 706 L 458 712"/>
  <line x1="459" y1="706" x2="463" y2="707"/>
  <path class="p5" d="M 462 713 L 466 714 L 467 707 L 463 707 L 462 713"/>
  <line x1="463" y1="707" x2="467" y2="707"/>
  <path class="p5" d="M 465 720 L 469 721 L 470 715 L 466 714 L 465 720"/>
  <path class="p5" d="M 469 721 L 474 722 L 475 715 L 470 715 L 469 721"/>
  <path class="p5" d="M 466 714 L 470 715 L 471 708 L 467 707 L 466 714"/>
  <line x1="467" y1="707" x2="471" y2="708"/>
  <path class="p5" d="M 470 715 L 475 715 L 475 709 L 471 708 L 470 715"/>
  <line x1="471" y1="708" x2="475" y2="709"/>
  <path class="p5" d="M 474 722 L 478 722 L 479 716 L 475 715 L 474 722"/>
  <path class="p5" d="M 478 722 L 482 722 L 483 716 L 479 716 L 478 722"/>
  <path class="p5" d="M 475 715 L 479 716 L 479 709 L 475 709 L 475 715"/>
  <line x1="475" y1="709" x2="479" y2="709"/>
  <path class="p5" d="M 479 716 L 483 716 L 484 709 L 479 709 L 479 716"/>
  <line x1="479" y1="709" x2="484" y2="709"/>
  <path class="p5" d="M 482 722 L 487 723 L 487 716 L 483 716 L 482 722"/>
  <path class="p5" d="M 487 723 L 491 723 L 491 716 L 487 716 L 487 723"/>
  <path class="p5" d="M 483 716 L 487 716 L 488 710 L 484 709 L 483 716"/>
  <line x1="484" y1="709" x2="488" y2="710"/>
  <path class="p5" d="M 487 716 L 491 716 L 492 710 L 488 710 L 487 716"/>
  <line x1="488" y1="710" x2="492" y2="710"/>
  <path class="p5" d="M 491 723 L 496 723 L 496 717 L 491 716 L 491 723"/>
  <path class="p5" d="M 496 723 L 500 723 L 500 717 L 496 717 L 496 723"/>
  <path class="p5" d="M 491 716 L 496 717 L 496 710 L 492 710 L 491 716"/>
  <line x1="492" y1="710" x2="496" y2="710"/>
  <path class="p5" d="M 496 717 L 500 717 L 500 710 L 496 710 L 496 717"/>
  <line x1="496" y1="710" x2="500" y2="710"/>
  <path class="p5" d="M 500 723 L 504 723 L 504 717 L 500 717 L 500 723"/>
  <path class="p5" d="M 504 723 L 509 723 L 509 716 L 504 717 L 504 723"/>
  <path class="p5" d="M 500 717 L 504 717 L 504 710 L 500 710 L 500 717"/>
  <line x1="500" y1="710" x2="504" y2="710"/>
  <path class="p5" d="M 504 717 L 509 716 L 508 710 L 504 710 L 504 717"/>
  <line x1="504" y1="710" x2="508" y2="710"/>
  <path class="p5" d="M 509 723 L 513 723 L 513 716 L 509 716 L 509 723"/>
  <path class="p5" d="M 513 723 L 518 722 L 517 716 L 513 716 L 513 723"/>
  <path class="p5" d="M 509 716 L 513 716 L 512 710 L 508 710 L 509 716"/>
  <line x1="508" y1="710" x2="512" y2="710"/>
  <path class="p5" d="M 513 716 L 517 716 L 516 709 L 512 710 L 513 716"/>
  <line x1="512" y1="710" x2="516" y2="709"/>
  <path class="p5" d="M 518 722 L 522 722 L 521 716 L 517 716 L 518 722"/>
  <path class="p5" d="M 522 722 L 526 722 L 525 715 L 521 716 L 522 722"/>
  <path class="p5" d="M 517 716 L 521 716 L 521 709 L 516 709 L 517 716"/>
  <line x1="516" y1="709" x2="521" y2="709"/>
  <path class="p5" d="M 521 716 L 525 715 L 525 709 L 521 709 L 521 716"/>
  <line x1="521" y1="709" x2="525" y2="709"/>
  <path class="p5" d="M 526 722 L 531 721 L 530 715 L 525 715 L 526 722"/>
  <path class="p5" d="M 531 721 L 535 720 L 534 714 L 530 715 L 531 721"/>
  <path class="p5" d="M 525 715 L 530 715 L 529 708 L 525 709 L 525 715"/>
  <line x1="525" y1="709" x2="529" y2="708"/>
  <path class="p5" d="M 530 715 L 534 714 L 533 707 L 529 708 L 530 715"/>
  <line x1="529" y1="708" x2="533" y2="707"/>
  <path class="p5" d="M 535 720 L 539 720 L 538 713 L 534 714 L 535 720"/>
  <path class="p5" d="M 539 720 L 544 719 L 542 712 L 538 713 L 539 720"/>
  <path class="p5" d="M 534 714 L 538 713 L 537 707 L 533 707 L 534 714"/>
  <line x1="533" y1="707" x2="537" y2="707"/>
  <path class="p5" d="M 538 713 L 542 712 L 541 706 L 537 707 L 538 713"/>
  <line x1="537" y1="707" x2="541" y2="706"/>
  <path class="p5" d="M 544 719 L 548 718 L 546 712 L 542 712 L 544 719"/>
  <path class="p5" d="M 548 718 L 552 717 L 551 711 L 546 712 L 548 718"/>
  <path class="p5" d="M 542 712 L 546 712 L 545 705 L 541 706 L 542 712"/>
  <line x1="541" y1="706" x2="545" y2="705"/>
  <path class="p5" d="M 546 712 L 551 711 L 549 704 L 545 705 L 546 712"/>
  <line x1="545" y1="705" x2="549" y2="704"/>
  <path class="p5" d="M 552 717 L 556 716 L 555 710 L 551 711 L 552 717"/>
  <path class="p5" d="M 556 716 L 561 715 L 559 708 L 555 710 L 556 716"/>
  <path class="p5" d="M 551 711 L 555 710 L 553 703 L 549 704 L 551 711"/>
  <line x1="549" y1="704" x2="553" y2="703"/>
  <path class="p5" d="M 555 710 L 559 708 L 557 702 L 553 703 L 555 710"/>
  <line x1="553" y1="703" x2="557" y2="702"/>
  <path class="p5" d="M 561 715 L 565 714 L 563 707 L 559 708 L 561 715"/>
  <path class="p5" d="M 565 714 L 569 712 L 567 706 L 563 707 L 565 714"/>
  <path class="p5" d="M 559 708 L 563 707 L 561 701 L 557 702 L 559 708"/>
  <line x1="557" y1="702" x2="561" y2="701"/>
  <path class="p5" d="M 563 707 L 567 706 L 565 700 L 561 701 L 563 707"/>
  <line x1="561" y1="701" x2="565" y2="700"/>
  <path class="p5" d="M 569 712 L 573 711 L 571 705 L 567 706 L 569 712"/>
  <path class="p5" d="M 573 711 L 577 709 L 575 703 L 571 705 L 573 711"/>
  <path class="p5" d="M 567 706 L 571 705 L 569 698 L 565 700 L 567 706"/>
  <line x1="565" y1="700" x2="569" y2="698"/>
  <path class="p5" d="M 571 705 L 575 703 L 573 697 L 569 698 L 571 705"/>
  <line x1="569" y1="698" x2="573" y2="697"/>
  <path class="p5" d="M 577 709 L 581 708 L 579 702 L 575 703 L 577 709"/>
  <path class="p5" d="M 581 708 L 585 706 L 583 700 L 579 702 L 581 708"/>
  <path class="p5" d="M 575 703 L 579 702 L 577 696 L 573 697 L 575 703"/>
  <line x1="573" y1="697" x2="577" y2="696"/>
  <path class="p5" d="M 579 702 L 583 700 L 580 694 L 577 696 L 579 702"/>
  <line x1="577" y1="696" x2="580" y2="694"/>
  <path class="p5" d="M 585 706 L 589 704 L 587 698 L 583 700 L 585 706"/>
  <path class="p5" d="M 589 704 L 593 703 L 591 697 L 587 698 L 589 704"/>
  <path class="p5" d="M 583 700 L 587 698 L 584 692 L 580 694 L 583 700"/>
  <line x1="580" y1="694" x2="584" y2="692"/>
  <path class="p5" d="M 587 698 L 591 697 L 588 691 L 584 692 L 587 698"/>
  <line x1="584" y1="692" x2="588" y2="691"/>
  <path class="p5" d="M 593 703 L 597 701 L 595 695 L 591 697 L 593 703"/>
  <path class="p5" d="M 597 701 L 601 699 L 598 693 L 595 695 L 597 701"/>
  <path class="p5" d="M 591 697 L 595 695 L 592 689 L 588 691 L 591 697"/>
  <line x1="588" y1="691" x2="592" y2="689"/>
  <path class="p5" d="M 595 695 L 598 693 L 595 687 L 592 689 L 595 695"/>
  <line x1="592" y1="689" x2="595" y2="687"/>
  <path class="p5" d="M 601 699 L 605 697 L 602 691 L 598 693 L 601 699"/>
  <path class="p5" d="M 605 697 L 609 695 L 606 689 L 602 691 L 605 697"/>
  <path class="p5" d="M 598 693 L 602 691 L 599 685 L 595 687 L 598 693"/>
  <line x1="595" y1="687" x2="599" y2="685"/>
  <path class="p5" d="M 602 691 L 606 689 L 603 683 L 599 685 L 602 691"/>
  <line x1="599" y1="685" x2="603" y2="683"/>
  <path class="p5" d="M 609 695 L 613 692 L 610 687 L 606 689 L 609 695"/>
  <path class="p5" d="M 613 692 L 617 690 L 613 685 L 610 687 L 613 692"/>
  <path class="p5" d="M 606 689 L 610 687 L 606 681 L 603 683 L 606 689"/>
  <line x1="603" y1="683" x2="606" y2="681"/>
  <path class="p5" d="M 610 687 L 613 685 L 610 679 L 606 681 L 610 687"/>
  <line x1="606" y1="681" x2="610" y2="679"/>
  <path class="p5" d="M 617 690 L 620 688 L 617 682 L 613 685 L 617 690"/>
  <path class="p5" d="M 620 688 L 624 686 L 620 680 L 617 682 L 620 688"/>
  <path class="p5" d="M 613 685 L 617 682 L 613 677 L 610 679 L 613 685"/>
  <line x1="610" y1="679" x2="613" y2="677"/>
  <path class="p5" d="M 617 682 L 620 680 L 617 675 L 613 677 L 617 682"/>
  <line x1="613" y1="677" x2="617" y2="675"/>
  <path class="p5" d="M 624 686 L 628 683 L 624 678 L 620 680 L 624 686"/>
  <path class="p5" d="M 628 683 L 631 681 L 627 675 L 624 678 L 628 683"/>
  <path class="p5" d="M 620 680 L 624 678 L 620 672 L 617 675 L 620 680"/>
  <line x1="617" y1="675" x2="620" y2="672"/>
  <path class="p5" d="M 624 678 L 627 675 L 623 670 L 620 672 L 624 678"/>
  <line x1="620" y1="672" x2="623" y2="670"/>
  <path class="p5" d="M 631 681 L 635 678 L 631 673 L 627 675 L 631 681"/>
  <path class="p5" d="M 635 678 L 638 675 L 634 670 L 631 673 L 635 678"/>
  <path class="p5" d="M 627 675 L 631 673 L 627 667 L 623 670 L 627 675"/>
  <line x1="623" y1="670" x2="627" y2="667"/>
  <path class="p5" d="M 631 673 L 634 670 L 630 665 L 627 667 L 631 673"/>
  <line x1="627" y1="667" x2="630" y2="665"/>
  <path class="p5" d="M 638 675 L 642 672 L 637 667 L 634 670 L 638 675"/>
  <path class="p5" d="M 642 672 L 645 670 L 641 665 L 637 667 L 642 672"/>
  <path class="p5" d="M 634 670 L 637 667 L 633 662 L 630 665 L 634 670"/>
  <line x1="630" y1="665" x2="633" y2="662"/>
  <path class="p5" d="M 637 667 L 641 665 L 636 660 L 633 662 L 637 667"/>
  <line x1="633" y1="662" x2="636" y2="660"/>
  <path class="p5" d="M 645 670 L 648 667 L 644 662 L 641 665 L 645 670"/>
  <path class="p5" d="M 648 667 L 651 664 L 647 659 L 644 662 L 648 667"/>
  <path class="p5" d="M 641 665 L 644 662 L 639 657 L 636 660 L 641 665"/>
  <line x1="636" y1="660" x2="639" y2="657"/>
  <path class="p5" d="M 644 662 L 647 659 L 643 654 L 639 657 L 644 662"/>
  <line x1="639" y1="657" x2="643" y2="654"/>
  <path class="p5" d="M 651 664 L 655 661 L 650 656 L 647 659 L 651 664"/>
  <path class="p5" d="M 655 661 L 658 658 L 653 653 L 650 656 L 655 661"/>
  <path class="p5" d="M 647 659 L 650 656 L 646 651 L 643 654 L 647 659"/>
  <line x1="643" y1="654" x2="646" y2="651"/>
  <path class="p5" d="M 650 656 L 653 653 L 648 648 L 646 651 L 650 656"/>
  <line x1="646" y1="651" x2="648" y2="648"/>
  <path class="p5" d="M 658 658 L 661 655 L 656 650 L 653 653 L 658 658"/>
  <path class="p5" d="M 661 655 L 664 651 L 659 647 L 656 650 L 661 655"/>
  <path class="p5" d="M 653 653 L 656 650 L 651 646 L 648 648 L 653 653"/>
  <line x1="648" y1="648" x2="651" y2="646"/>
  <path class="p5" d="M 656 650 L 659 647 L 654 643 L 651 646 L 656 650"/>
  <line x1="651" y1="646" x2="654" y2="643"/>
  <path class="p5" d="M 664 651 L 667 648 L 662 644 L 659 647 L 664 651"/>
  <path class="p5" d="M 667 648 L 670 645 L 665 641 L 662 644 L 667 648"/>
  <path class="p5" d="M 659 647 L 662 644 L 657 639 L 654 643 L 659 647"/>
  <line x1="654" y1="643" x2="657" y2="639"/>
  <path class="p5" d="M 662 644 L 665 641 L 660 636 L 657 639 L 662 644"/>
  <line x1="657" y1="639" x2="660" y2="636"/>
  <path class="p5" d="M 670 645 L 672 642 L 667 637 L 665 641 L 670 645"/>
  <path class="p5" d="M 672 642 L 675 638 L 670 634 L 667 637 L 672 642"/>
  <path class="p5" d="M 665 641 L 667 637 L 662 633 L 660 636 L 665 641"/>
  <line x1="660" y1="636" x2="662" y2="633"/>
  <path class="p5" d="M 667 637 L 670 634 L 665 630 L 662 633 L 667 637"/>
  <line x1="662" y1="633" x2="665" y2="630"/>
  <path class="p5" d="M 675 638 L 678 635 L 673 631 L 670 634 L 675 638"/>
  <path class="p5" d="M 678 635 L 681 631 L 675 627 L 673 631 L 678 635"/>
  <path class="p5" d="M 670 634 L 673 631 L 667 627 L 665 630 L 670 634"/>
  <line x1="665" y1="630" x2="667" y2="627"/>
  <path class="p5" d="M 673 631 L 675 627 L 670 623 L 667 627 L 673 631"/>
  <line x1="667" y1="627" x2="670" y2="623"/>
  <path class="p5" d="M 681 631 L 683 628 L 678 624 L 675 627 L 681 631"/>
  <path class="p5" d="M 683 628 L 686 624 L 680 620 L 678 624 L 683 628"/>
  <path class="p5" d="M 675 627 L 678 624 L 672 620 L 670 623 L 675 627"/>
  <line x1="670" y1="623" x2="672" y2="620"/>
  <path class="p5" d="M 678 624 L 680 620 L 675 617 L 672 620 L 678 624"/>
  <line x1="672" y1="620" x2="675" y2="617"/>
  <path class="p5" d="M 686 624 L 688 620 L 682 617 L 680 620 L 686 624"/>
  <path class="p5" d="M 688 620 L 690 617 L 685 613 L 682 617 L 688 620"/>
  <path class="p5" d="M 680 620 L 682 617 L 677 613 L 675 617 L 680 620"/>
  <line x1="675" y1="617" x2="677" y2="613"/>
  <path class="p5" d="M 682 617 L 685 613 L 679 610 L 677 613 L 682 617"/>
  <line x1="677" y1="613" x2="679" y2="610"/>
  <path class="p5" d="M 690 617 L 692 613 L 687 610 L 685 613 L 690 617"/>
  <path class="p5" d="M 692 613 L 695 609 L 689 606 L 687 610 L 692 613"/>
  <path class="p5" d="M 685 613 L 687 610 L 681 606 L 679 610 L 685 613"/>
  <line x1="679" y1="610" x2="681" y2="606"/>
  <path class="p5" d="M 687 610 L 689 606 L 683 603 L 681 606 L 687 610"/>
  <line x1="681" y1="606" x2="683" y2="603"/>
  <path class="p5" d="M 695 609 L 697 605 L 691 602 L 689 606 L 695 609"/>
  <path class="p5" d="M 697 605 L 699 601 L 693 598 L 691 602 L 697 605"/>
  <path class="p5" d="M 689 606 L 691 602 L 685 599 L 683 603 L 689 606"/>
  <line x1="683" y1="603" x2="685" y2="599"/>
  <path class="p5" d="M 691 602 L 693 598 L 687 595 L 685 599 L 691 602"/>
  <line x1="685" y1="599" x2="687" y2="595"/>
  <path class="p5" d="M 699 601 L 701 597 L 695 595 L 693 598 L 699 601"/>
  <path class="p5" d="M 701 597 L 703 593 L 697 591 L 695 595 L 701 597"/>
  <path class="p5" d="M 693 598 L 695 595 L 689 592 L 687 595 L 693 598"/>
  <line x1="687" y1="595" x2="689" y2="592"/>
  <path class="p5" d="M 695 595 L 697 591 L 691 588 L 689 592 L 695 595"/>
  <line x1="689" y1="592" x2="691" y2="588"/>
  <path class="p5" d="M 703 593 L 704 589 L 698 587 L 697 591 L 703 593"/>
  <path class="p5" d="M 704 589 L 706 585 L 700 583 L 698 587 L 704 589"/>
  <path class="p5" d="M 697 591 L 698 587 L 692 584 L 691 588 L 697 591"/>
  <line x1="691" y1="588" x2="692" y2="584"/>
  <path class="p5" d="M 698 587 L 700 583 L 694 580 L 692 584 L 698 587"/>
  <line x1="692" y1="584" x2="694" y2="580"/>
  <path class="p5" d="M 706 585 L 708 581 L 702 579 L 700 583 L 706 585"/>
  <path class="p5" d="M 708 581 L 709 577 L 703 575 L 702 579 L 708 581"/>
  <path class="p5" d="M 700 583 L 702 579 L 696 577 L 694 580 L 700 583"/>
  <line x1="694" y1="580" x2="696" y2="577"/>
  <path class="p5" d="M 702 579 L 703 575 L 697 573 L 696 577 L 702 579"/>
  <line x1="696" y1="577" x2="697" y2="573"/>
  <path class="p5" d="M 709 577 L 711 573 L 705 571 L 703 575 L 709 577"/>
  <path class="p5" d="M 711 573 L 712 569 L 706 567 L 705 571 L 711 573"/>
  <path class="p5" d="M 703 575 L 705 571 L 698 569 L 697 573 L 703 575"/>
  <line x1="697" y1="573" x2="698" y2="569"/>
  <path class="p5" d="M 705 571 L 706 567 L 700 565 L 698 569 L 705 571"/>
  <line x1="698" y1="569" x2="700" y2="565"/>
  <path class="p5" d="M 712 569 L 714 565 L 707 563 L 706 567 L 712 569"/>
  <path class="p5" d="M 714 565 L 715 561 L 708 559 L 707 563 L 714 565"/>
  <path class="p5" d="M 706 567 L 707 563 L 701 561 L 700 565 L 706 567"/>
  <line x1="700" y1="565" x2="701" y2="561"/>
  <path class="p5" d="M 707 563 L 708 559 L 702 557 L 701 561 L 707 563"/>
  <line x1="701" y1="561" x2="702" y2="557"/>
  <path class="p5" d="M 715 561 L 716 556 L 710 555 L 708 559 L 715 561"/>
  <path class="p5" d="M 716 556 L 717 552 L 711 551 L 710 555 L 716 556"/>
  <path class="p5" d="M 708 559 L 710 555 L 703 553 L 702 557 L 708 559"/>
  <line x1="702" y1="557" x2="703" y2="553"/>
  <path class="p5" d="M 710 555 L 711 551 L 704 549 L 703 553 L 710 555"/>
  <line x1="703" y1="553" x2="704" y2="549"/>
  <path class="p5" d="M 717 552 L 718 548 L 712 546 L 711 551 L 717 552"/>
  <path class="p5" d="M 718 548 L 719 544 L 712 542 L 712 546 L 718 548"/>
  <path class="p5" d="M 711 551 L 712 546 L 705 545 L 704 549 L 711 551"/>
  <line x1="704" y1="549" x2="705" y2="545"/>
  <path class="p5" d="M 712 546 L 712 542 L 706 541 L 705 545 L 712 546"/>
  <line x1="705" y1="545" x2="706" y2="541"/>
  <path class="p5" d="M 719 544 L 720 539 L 713 538 L 712 542 L 719 544"/>
  <path class="p5" d="M 720 539 L 720 535 L 714 534 L 713 538 L 720 539"/>
  <path class="p5" d="M 712 542 L 713 538 L 707 537 L 706 541 L 712 542"/>
  <line x1="706" y1="541" x2="707" y2="537"/>
  <path class="p5" d="M 713 538 L 714 534 L 707 533 L 707 537 L 713 538"/>
  <line x1="707" y1="537" x2="707" y2="533"/>
  <path class="p5" d="M 720 535 L 721 531 L 715 530 L 714 534 L 720 535"/>
  <path class="p5" d="M 721 531 L 722 526 L 715 525 L 715 530 L 721 531"/>
  <path class="p5" d="M 714 534 L 715 530 L 708 529 L 707 533 L 714 534"/>
  <line x1="707" y1="533" x2="708" y2="529"/>
  <path class="p5" d="M 715 530 L 715 525 L 709 525 L 708 529 L 715 530"/>
  <line x1="708" y1="529" x2="709" y2="525"/>
  <path class="p5" d="M 722 526 L 722 522 L 716 521 L 715 525 L 722 526"/>
  <path class="p5" d="M 722 522 L 722 518 L 716 517 L 716 521 L 722 522"/>
  <path class="p5" d="M 715 525 L 716 521 L 709 521 L 709 525 L 715 525"/>
  <line x1="709" y1="525" x2="709" y2="521"/>
  <path class="p5" d="M 716 521 L 716 517 L 709 516 L 709 521 L 716 521"/>
  <line x1="709" y1="521" x2="709" y2="516"/>
  <path class="p5" d="M 722 518 L 723 513 L 716 513 L 716 517 L 722 518"/>
  <path class="p5" d="M 723 513 L 723 509 L 716 509 L 716 513 L 723 513"/>
  <path class="p5" d="M 716 517 L 716 513 L 710 512 L 709 516 L 716 517"/>
  <line x1="709" y1="516" x2="710" y2="512"/>
  <path class="p5" d="M 716 513 L 716 509 L 710 508 L 710 512 L 716 513"/>
  <line x1="710" y1="512" x2="710" y2="508"/>
  <path class="p5" d="M 723 509 L 723 504 L 717 504 L 716 509 L 723 509"/>
  <path class="p5" d="M 723 504 L 723 500 L 717 500 L 717 504 L 723 504"/>
  <path class="p5" d="M 716 509 L 717 504 L 710 504 L 710 508 L 716 509"/>
  <line x1="710" y1="508" x2="710" y2="504"/>
  <path class="p5" d="M 717 504 L 717 500 L 710 500 L 710 504 L 717 504"/>
  <line x1="710" y1="504" x2="710" y2="500"/>

</svg>